<svg width="72" height="32" viewBox="0 0 72 32" fill="none" xmlns="http://www.w3.org/2000/svg">
<g clip-path="url(#clip0_424_21541)">
<path d="M59.9704 24.2889C58.7698 24.2887 57.5943 23.9388 56.5827 23.2807C55.5711 22.6226 54.7657 21.6836 54.2615 20.5747C54.1377 20.3052 54.0284 20.232 53.7535 20.232C42.4637 20.2408 31.0156 20.2408 19.7229 20.232C19.4106 20.232 19.2998 20.3521 19.1703 20.6215C18.1226 22.7994 16.3338 24.0531 13.9895 24.2464C10.8235 24.5057 8.10212 22.445 7.35522 19.2316C7.13692 18.2344 7.15634 17.1984 7.41185 16.2103C7.66737 15.2222 8.15156 14.3107 8.82396 13.552C9.49636 12.7933 10.3374 12.2094 11.2769 11.8491C12.2164 11.4888 13.2269 11.3626 14.2241 11.481C16.4317 11.7226 18.1442 12.9661 19.1761 15.0751C19.2197 15.1984 19.3023 15.3035 19.4109 15.374C19.5195 15.4444 19.6479 15.4764 19.7762 15.4647C31.1163 15.454 42.4469 15.4466 53.7679 15.4427C53.8477 15.4391 53.9259 15.4186 53.9975 15.3825C54.0691 15.3465 54.1325 15.2957 54.1838 15.2333C55.1912 13.1126 56.8087 11.8647 59.1228 11.4414C61.8413 10.9362 65.016 12.865 65.9168 15.5731C65.9338 15.6428 65.9283 15.7163 65.901 15.7825L65.8593 15.9422H65.1872H64.1583C63.3423 15.9422 62.4975 15.9539 61.6672 15.926C61.1304 15.9085 60.8037 16.052 60.536 16.4196C60.2173 16.8492 59.8737 17.259 59.5071 17.6469C59.3631 17.8051 59.3761 17.8769 59.4855 18.0043C59.6265 18.1683 59.7666 18.3334 59.9057 18.4993C60.218 18.867 60.5389 19.2478 60.8728 19.6051C61.005 19.7144 61.1702 19.7739 61.3405 19.7735C62.3018 19.7867 63.2761 19.7853 64.2187 19.7838H66.0507L65.9758 19.983C65.2102 22.0144 63.8978 23.3149 61.9622 23.9579C61.3201 24.1767 60.6475 24.2885 59.9704 24.2889ZM53.7535 19.939C54.1421 19.939 54.3493 20.0855 54.522 20.4502C55.1416 21.8124 56.2323 22.8948 57.5859 23.491C58.9396 24.0871 60.4615 24.1553 61.8614 23.6826C63.6459 23.0967 64.8764 21.9104 65.6189 20.0796H64.2144C63.2703 20.0796 62.2946 20.0796 61.3362 20.0694C61.0983 20.0685 60.8682 19.983 60.6857 19.8277L60.6742 19.816C60.3331 19.4513 60.0064 19.0661 59.6913 18.6927C59.5473 18.5286 59.4121 18.3631 59.2725 18.2006C59.0566 17.9516 59.0652 17.7055 59.3013 17.4492C59.6597 17.0692 59.9961 16.6682 60.3086 16.2483C60.6339 15.7986 61.044 15.6156 61.6787 15.6361C62.5033 15.6639 63.3452 15.658 64.1597 15.6522C64.5036 15.6522 64.8461 15.6522 65.1901 15.6522H65.6405C64.7771 13.0803 61.7549 11.2584 59.1775 11.7314C56.9598 12.1445 55.4128 13.3322 54.4457 15.3636C54.3464 15.5775 54.014 15.7386 53.7708 15.7386C42.4498 15.7386 31.124 15.7454 19.7934 15.7591C19.6068 15.7751 19.42 15.7289 19.2614 15.6274C19.1028 15.526 18.9809 15.3748 18.9141 15.1967C17.9327 13.1902 16.2978 12.0097 14.1924 11.771C13.2415 11.6592 12.278 11.7804 11.3825 12.1245C10.4869 12.4686 9.68509 13.0255 9.04395 13.749C8.40281 14.4724 7.94088 15.3413 7.69669 16.2833C7.45251 17.2253 7.43312 18.2131 7.64017 19.1643C8.35972 22.2399 10.9573 24.2025 13.9722 23.9535C16.2029 23.769 17.9111 22.5724 18.9113 20.4927C19.0768 20.1514 19.271 19.939 19.7229 19.939C31.0142 19.9478 42.4637 19.9478 53.7535 19.939ZM13.3793 23.022C12.1995 23.0141 11.0635 22.5665 10.1859 21.7639C9.15075 20.831 8.51928 19.5199 8.4288 18.1156C8.25467 15.2318 10.3572 12.9016 13.3304 12.6981C13.9685 12.6571 14.6083 12.7462 15.2122 12.9599C15.8161 13.1737 16.3721 13.5079 16.8476 13.943C17.882 14.8731 18.5127 16.1821 18.6019 17.584C18.7717 20.4311 16.613 22.8155 13.6902 23.0118C13.588 23.0176 13.4858 23.022 13.3793 23.022ZM13.6412 12.9807C13.5419 12.9807 13.4441 12.9807 13.3448 12.991C10.5443 13.1814 8.55256 15.3783 8.71662 18.098C8.80313 19.4254 9.40162 20.6641 10.3817 21.5442C10.8261 21.9516 11.3457 22.265 11.9102 22.4662C12.4748 22.6673 13.073 22.7522 13.67 22.7159C16.4346 22.5299 18.4738 20.2832 18.314 17.5986C18.2296 16.2756 17.6341 15.0403 16.6576 14.1627C15.8301 13.4069 14.7589 12.9864 13.647 12.9807H13.6412Z" fill="black"/>
<path d="M68.0553 19.4239C68.6065 19.2116 69.1491 18.9729 69.7103 18.7912C70.5882 18.5071 71.0156 17.8261 71.2012 16.9927C71.8719 13.983 71.7769 11.0508 70.286 8.26371C69.9607 7.65883 69.7765 6.97633 69.4786 6.35974C69.375 6.15176 69.1404 5.89399 68.9289 5.85884C68.051 5.70213 67.1617 5.58789 66.2723 5.51759C64.6648 5.39164 63.053 5.34184 61.4498 5.18513C60.985 5.13973 60.5374 4.85852 60.0942 4.65787C57.216 3.35731 54.1737 2.59718 51.1185 1.92786C48.836 1.44452 46.5303 1.08276 44.2108 0.844061C42.5025 0.653663 40.767 0.726893 39.0472 0.636088C35.7589 0.460336 32.7065 1.27319 29.8283 2.84177C27.5416 4.08814 25.2692 5.36088 22.9782 6.59554C22.6566 6.78211 22.2885 6.86915 21.919 6.84598C20.4799 6.64533 19.0552 6.82108 17.6376 7.00269C15.6876 7.25314 13.7218 7.45672 11.8107 7.8961C9.32679 8.46583 6.88463 9.22888 4.4367 9.94654C3.9287 10.093 3.48401 10.4577 2.9976 10.692C1.86646 11.2398 1.41602 12.3031 1.0217 13.3942C0.892181 13.7501 1.03465 14.2129 1.06343 14.6259C1.1138 15.3582 1.20735 16.1052 1.20735 16.8463C1.20735 17.1538 1.12532 17.5493 0.929597 17.7543C0.450374 18.2537 0.539599 18.8044 0.597163 19.3917L6.2802 19.8458C6.23271 19.131 6.15788 18.469 6.1478 17.8056C6.09743 14.6464 8.23019 11.6777 11.3818 10.7228C12.9382 10.2444 14.6075 10.3125 16.1213 10.916C17.6351 11.5195 18.9056 12.6234 19.7287 14.0503C19.956 14.4429 20.2064 14.5542 20.6281 14.5512C24.3799 14.5366 28.1316 14.519 31.8834 14.5512C35.7028 14.5791 39.5222 14.6581 43.343 14.7592H35.4711C30.4419 14.7758 25.4122 14.7987 20.382 14.828C19.9978 14.828 19.7762 14.7343 19.5776 14.3652C18.2349 11.8637 15.312 10.3991 12.5547 10.8238C9.57432 11.2852 7.23721 13.5451 6.72345 16.524C6.48047 17.8005 6.58497 19.1204 7.02566 20.3408C6.45001 20.313 5.90603 20.2939 5.36061 20.2573C4.18054 20.1782 3.00191 20.0889 1.82184 20.0083C1.32247 19.9732 0.814469 19.9732 0.325172 19.9087C0.211483 19.8941 0.0531808 19.6803 0.0373506 19.547C-0.00149819 19.1087 -0.010154 18.6683 0.0114466 18.2288C0.0270289 18.0705 0.0992442 17.9235 0.214361 17.8158C0.628824 17.4526 0.71517 16.9898 0.664802 16.4742C0.57126 15.4988 0.502182 14.5219 0.427349 13.5451C0.427349 13.4909 0.404323 13.425 0.427349 13.3839C0.908011 12.5052 1.10229 11.4536 1.96432 10.7814C3.55309 9.53791 5.42105 8.95207 7.31492 8.40431C10.3057 7.54834 13.3615 6.94773 16.4504 6.60872C17.711 6.46226 18.9659 6.2704 20.2295 6.15176C20.6972 6.10782 21.1807 6.25136 21.6556 6.24257C22.0499 6.24257 22.4903 6.22646 22.8256 6.05217C25.7758 4.51874 28.677 2.88864 31.656 1.41232C33.642 0.423721 35.8193 0.0707531 38.0312 0.0326735C39.2386 0.0121692 40.4504 -0.0332334 41.652 0.0458549C43.3991 0.161558 45.1462 0.329987 46.8817 0.564323C50.8623 1.10329 54.7292 2.14023 58.5285 3.44665C59.2964 3.70881 60.0489 4.01591 60.7821 4.36642C61.6844 4.8058 62.6457 4.65934 63.5812 4.74721C65.098 4.89367 66.622 4.94933 68.1403 5.07089C68.4791 5.11927 68.812 5.20421 69.1332 5.32427C69.6369 5.47951 69.9046 5.80905 70.0643 6.34948C70.2887 7.0448 70.5778 7.71669 70.9278 8.35598C72.069 10.5807 72.1769 12.9358 71.8157 15.3509C71.7202 16.0017 71.5759 16.6441 71.384 17.2725C71.1278 18.0985 70.6126 18.7019 69.7521 18.9567C69.1908 19.1222 68.6425 19.3361 68.0884 19.5265L68.0553 19.4239Z" fill="black"/>
<path d="M53.178 6.02241C52.1116 6.11175 51.0452 6.21281 49.9774 6.2875C48.2994 6.40614 46.6214 6.52037 44.9405 6.61118C44.2569 6.64779 43.5719 6.60093 42.8869 6.61997C40.9139 6.67562 38.9394 6.74299 36.9664 6.8089C35.2596 6.86651 33.5533 6.92509 31.8475 6.98465C29.7464 7.05642 27.6453 7.12086 25.5442 7.19848C25.1024 7.21459 24.662 7.27318 24.1799 7.20874C24.2792 7.12818 24.3728 7.03884 24.4778 6.96854C28.067 4.56514 31.99 2.86767 35.9907 1.33277C36.2813 1.24054 36.5871 1.20817 36.8901 1.23757C38.5192 1.31812 40.1483 1.41625 41.7831 1.51731C43.2222 1.60665 44.6743 1.74139 46.1206 1.79851C48.6879 1.90103 51.1574 2.4942 53.6154 3.20013C53.8137 3.27625 54.0061 3.36731 54.1911 3.47255C52.0957 3.14741 50.0896 2.8003 48.0749 2.54253C46.8142 2.38142 45.5363 2.35067 44.267 2.26572C42.3962 2.14074 40.5253 2.01918 38.6545 1.90103C37.9349 1.85563 37.2226 1.81755 36.5059 1.79412C36.3271 1.79133 36.1495 1.82468 35.9835 1.89225C32.8534 3.10493 29.7853 4.4465 26.8509 6.10882C26.6806 6.21426 26.5159 6.32865 26.3573 6.45154L26.4019 6.60532C26.8739 6.60532 27.346 6.61704 27.8166 6.60532C28.48 6.58628 29.142 6.54234 29.8054 6.51891C31.9641 6.44422 34.1112 6.37245 36.2641 6.30361C38.2012 6.23771 40.1368 6.1469 42.0738 6.10443C45.7075 6.02388 49.3413 5.96969 52.975 5.90671C53.0441 5.90671 53.1132 5.91257 53.1823 5.92428C53.1794 5.95211 53.1794 5.98433 53.178 6.02241Z" fill="black"/>
<path d="M39.7496 13.7672H35.451C33.596 13.7672 31.741 13.7775 29.8859 13.7672C29.2772 13.7687 28.6693 13.7247 28.0669 13.6354C27.7893 13.5887 27.5386 13.439 27.3632 13.2151C26.4709 11.8618 25.6204 10.4807 24.7584 9.11419C24.7251 9.04201 24.6995 8.96639 24.6821 8.88864L26.2651 8.5181L26.2939 8.61915L25.0232 9.03949L25.4808 9.69124C26.1558 10.6637 26.8365 11.6318 27.4956 12.6087C27.5901 12.7607 27.7227 12.8843 27.8798 12.9667C28.0369 13.0491 28.2128 13.0873 28.3893 13.0774C30.2601 13.1155 32.118 13.199 33.9831 13.2707C35.5747 13.3337 37.1664 13.3967 38.758 13.4743C39.089 13.4904 39.4172 13.571 39.7467 13.6208C39.7496 13.6603 39.7496 13.7101 39.7496 13.7672Z" fill="black"/>
<path d="M17.9198 17.8476C17.9144 18.7344 17.6512 19.5998 17.1633 20.3346C16.6754 21.0695 15.9847 21.6409 15.1783 21.9769C14.3718 22.3128 13.4857 22.3983 12.6315 22.2226C11.7774 22.0469 10.9935 21.6177 10.3786 20.9893C9.7637 20.3609 9.34536 19.5613 9.17628 18.6913C9.00721 17.8213 9.09497 16.9198 9.4285 16.1005C9.76203 15.2812 10.3264 14.5807 11.0505 14.0872C11.7746 13.5938 12.626 13.3296 13.4974 13.3278C14.0801 13.3267 14.6572 13.4429 15.1955 13.6699C15.7338 13.8968 16.2226 14.23 16.6337 14.6502C17.0449 15.0704 17.3702 15.5692 17.5909 16.118C17.8116 16.6668 17.9234 17.2546 17.9198 17.8476ZM16.4721 14.851C15.3654 14.9711 15.1423 14.851 14.5609 13.8258C13.8745 14.4014 13.1506 14.4204 12.4656 13.8258C11.9202 14.8188 11.6482 14.9697 10.6048 14.8803C10.7818 15.6932 10.5401 16.301 9.76439 16.6481C9.72484 16.6873 9.69567 16.7361 9.67957 16.7898C9.66347 16.8436 9.66096 16.9006 9.67228 16.9557C10.2292 17.6616 10.0263 18.3119 9.50535 18.9665C10.4293 19.2507 10.8221 19.8453 10.5991 20.8266C11.4266 20.6699 12.0223 20.8896 12.3533 21.6702C12.3764 21.7229 12.6541 21.7376 12.7505 21.6702C13.2614 21.3333 13.7579 21.3187 14.2544 21.6702C14.5077 21.8503 14.6329 21.7932 14.771 21.4944C15.0445 20.9086 15.5208 20.7094 16.1886 20.8075C16.277 20.8032 16.3643 20.7854 16.4476 20.7548C16.1886 19.8087 16.6448 19.28 17.4046 18.9665C17.4046 18.886 17.4204 18.8391 17.4046 18.8201C16.9729 18.2167 16.8131 17.6133 17.3542 16.9732C17.3649 16.9128 17.3609 16.8507 17.3426 16.7923C17.3243 16.7338 17.2922 16.6808 17.2492 16.6378C16.4606 16.2746 16.2159 15.6785 16.4721 14.851Z" fill="black"/>
<path d="M14.5149 28.1569C14.7634 28.3309 14.9514 28.5806 15.0517 28.8702V27.9387H15.8662V31.9458H15.0517V31.0158C14.9523 31.3054 14.7641 31.555 14.5149 31.7276C14.2456 31.9127 13.9259 32.007 13.601 31.9971C13.2779 32.0027 12.9596 31.917 12.6815 31.7496C12.4076 31.5795 12.1882 31.3322 12.0497 31.0378C11.8989 30.6932 11.8209 30.3202 11.8209 29.943C11.8209 29.5658 11.8989 29.1928 12.0497 28.8482C12.1885 28.5536 12.4078 28.3059 12.6815 28.1349C12.9597 27.9677 13.2779 27.882 13.601 27.8874C13.9258 27.8782 14.2453 27.9724 14.5149 28.1569ZM12.9822 28.9683C12.771 29.2463 12.6564 29.5879 12.6564 29.9393C12.6564 30.2908 12.771 30.6323 12.9822 30.9103C13.0937 31.0277 13.2282 31.1198 13.377 31.1806C13.5257 31.2414 13.6855 31.2696 13.8457 31.2633C14.0618 31.266 14.2745 31.2093 14.4616 31.0993C14.6445 30.9882 14.7939 30.8281 14.8934 30.6365C14.9966 30.4193 15.0502 30.1812 15.0502 29.94C15.0502 29.6988 14.9966 29.4608 14.8934 29.2436C14.7952 29.0506 14.6456 28.8897 14.4616 28.7794C14.2751 28.668 14.0619 28.6112 13.8457 28.6153C13.6854 28.6086 13.5256 28.6365 13.3767 28.6974C13.2278 28.7582 13.0934 28.8506 12.9822 28.9683Z" fill="black"/>
<path d="M19.0048 31.0875L20.1201 27.9387H20.9922L19.497 31.9458H18.5098L17.0088 27.9387H17.8809L19.0048 31.0875Z" fill="black"/>
<path d="M28.2727 28.1379C28.5759 28.2989 28.8261 28.5469 28.9923 28.8511C29.1604 29.1907 29.248 29.5656 29.248 29.9459C29.248 30.3262 29.1604 30.7011 28.9923 31.0407C28.8269 31.3452 28.5765 31.5929 28.2727 31.7525C27.9536 31.9144 27.6018 31.9987 27.2452 31.9987C26.8886 31.9987 26.5368 31.9144 26.2177 31.7525C25.9143 31.5903 25.6641 31.3414 25.4981 31.0363C25.3258 30.6988 25.2358 30.324 25.2358 29.9437C25.2358 29.5634 25.3258 29.1886 25.4981 28.8511C25.6655 28.5478 25.9154 28.3002 26.2177 28.1379C26.5368 27.9759 26.8886 27.8916 27.2452 27.8916C27.6018 27.8916 27.9536 27.9759 28.2727 28.1379ZM26.6652 28.7559C26.4805 28.8581 26.3302 29.0142 26.2335 29.2041C26.1278 29.4358 26.0731 29.6882 26.0731 29.9437C26.0731 30.1992 26.1278 30.4516 26.2335 30.6833C26.3318 30.8698 26.482 31.0226 26.6652 31.1227C26.8427 31.2179 27.0403 31.2676 27.2409 31.2676C27.4415 31.2676 27.639 31.2179 27.8165 31.1227C27.9997 31.0226 28.1499 30.8698 28.2482 30.6833C28.3539 30.4516 28.4086 30.1992 28.4086 29.9437C28.4086 29.6882 28.3539 29.4358 28.2482 29.2041C28.1516 29.0142 28.0012 28.8581 27.8165 28.7559C27.6389 28.6613 27.4413 28.6119 27.2409 28.6119C27.0404 28.6119 26.8429 28.6613 26.6652 28.7559Z" fill="black"/>
<path d="M30.7811 31.9795V28.6446H30.1853V27.9387H30.7811V26.9486H31.6028V27.9445H32.2202V28.6505H31.6028V31.9854" fill="#EA650A"/>
<path d="M22.5206 31.9795V28.6446H21.9233V27.9387H22.5206V26.9486H23.3423V27.9445H23.9597V28.6505H23.3423V31.9854" fill="black"/>
<path d="M37.506 30.1063H34.4838C34.4982 30.5178 34.6091 30.8239 34.8192 31.0231C35.0308 31.2211 35.3105 31.3263 35.5977 31.316C35.8443 31.3237 36.0867 31.2497 36.2885 31.1051C36.4717 30.9723 36.5958 30.7712 36.6339 30.5457H37.506C37.4573 30.8183 37.3448 31.0751 37.1779 31.2941C37.0049 31.5163 36.7818 31.6927 36.5274 31.8081C36.2459 31.9341 35.9411 31.997 35.6337 31.9927C35.2827 31.9987 34.936 31.9135 34.6263 31.7452C34.3337 31.5808 34.0942 31.3335 33.937 31.0334C33.7723 30.6928 33.6866 30.3182 33.6866 29.9386C33.6866 29.559 33.7723 29.1844 33.937 28.8438C34.0945 28.5434 34.3339 28.2958 34.6263 28.1305C34.9399 27.9688 35.2865 27.8845 35.638 27.8845C35.9896 27.8845 36.3361 27.9688 36.6497 28.1305C36.9294 28.2847 37.1601 28.5169 37.3146 28.7999C37.4709 29.0906 37.5508 29.4175 37.5463 29.7489C37.5437 29.869 37.5302 29.9887 37.506 30.1063ZM36.5806 29.0693C36.49 28.8998 36.3503 28.7628 36.1806 28.6768C36.0079 28.5918 35.8183 28.5482 35.6265 28.5494C35.3328 28.5396 35.0466 28.6444 34.8264 28.8423C34.6119 29.0415 34.5054 29.1352 34.4867 29.5307H36.7231C36.7332 29.2744 36.6785 29.2466 36.5792 29.0693H36.5806Z" fill="#EA650A"/>
<path d="M44.9088 28.3239C45.187 28.6256 45.3261 29.0547 45.3261 29.6112V31.9458H44.5116V29.6991C44.5303 29.4051 44.4382 29.115 44.254 28.8877C44.1643 28.7894 44.0546 28.7123 43.9325 28.6617C43.8105 28.6111 43.679 28.5882 43.5474 28.5948C43.4061 28.5874 43.2649 28.6112 43.1335 28.6646C43.0021 28.7179 42.8836 28.7995 42.7861 28.9038C42.5942 29.1099 42.4983 29.4116 42.4983 29.809V31.9458H41.6823V29.6991C41.7009 29.4054 41.6093 29.1155 41.4261 28.8877C41.3361 28.7895 41.2261 28.7124 41.1039 28.6618C40.9816 28.6112 40.8499 28.5883 40.7181 28.5948C40.5768 28.5874 40.4356 28.6112 40.3042 28.6646C40.1728 28.7179 40.0543 28.7995 39.9568 28.9038C39.7649 29.1099 39.669 29.4116 39.669 29.809V31.9458H38.8516V27.9387H39.6661V28.775C39.7525 28.4999 39.9294 28.2636 40.1669 28.1056C40.4121 27.9469 40.6981 27.8658 40.9886 27.8728C41.2921 27.865 41.5908 27.9513 41.8449 28.1203C42.0914 28.2938 42.2757 28.5441 42.3702 28.8335C42.476 28.5453 42.6684 28.2983 42.9199 28.1276C43.1759 27.956 43.4769 27.8671 43.7834 27.8728C43.9917 27.8625 44.1997 27.8974 44.3937 27.9751C44.5878 28.0529 44.7633 28.1718 44.9088 28.3239Z" fill="#EA650A"/>
<path d="M46.8617 26.4257C46.9128 26.3786 46.9725 26.3421 47.0374 26.3185C47.1024 26.2949 47.1713 26.2845 47.2402 26.2881C47.3805 26.2815 47.5179 26.3309 47.623 26.4257C47.6701 26.47 47.7073 26.524 47.7322 26.5841C47.757 26.6442 47.7688 26.7091 47.7669 26.7743C47.7691 26.8387 47.7573 26.9027 47.7324 26.962C47.7075 27.0212 47.6702 27.0741 47.623 27.117C47.5161 27.208 47.3794 27.2546 47.2402 27.2474C47.1023 27.2547 46.9669 27.208 46.8617 27.117C46.8145 27.0741 46.7771 27.0212 46.7523 26.962C46.7274 26.9027 46.7156 26.8387 46.7178 26.7743C46.7161 26.7091 46.7281 26.6444 46.7529 26.5843C46.7777 26.5242 46.8148 26.4701 46.8617 26.4257ZM47.6431 27.9387V31.9458H46.8286V27.9387H47.6431Z" fill="#EA650A"/>
<path d="M50.5702 28.1027C50.8313 27.9455 51.1304 27.8658 51.4337 27.8728V28.775H51.1905C50.8812 28.7589 50.576 28.8526 50.327 29.0401C50.1102 29.2178 50.0018 29.5107 50.0018 29.9188V31.9458H49.1873V27.9387H50.0018V28.7237C50.131 28.467 50.3278 28.252 50.5702 28.1027Z" fill="#EA650A"/>
<path d="M53.2297 31.0304V31.9458H52.3073V31.0304H53.2297Z" fill="#EA650A"/>
<path d="M56.9843 28.1569C57.2317 28.3318 57.419 28.5812 57.5197 28.8701V27.9387H58.3342V31.9458H57.5197V31.0158C57.4195 31.3046 57.2321 31.5537 56.9843 31.7276C56.7144 31.9125 56.3943 32.0068 56.0691 31.9971C55.7464 32.0025 55.4286 31.9168 55.1509 31.7495C54.8763 31.58 54.6563 31.3326 54.5177 31.0378C54.3669 30.6932 54.2889 30.3202 54.2889 29.943C54.2889 29.5658 54.3669 29.1928 54.5177 28.8482C54.6571 28.5535 54.8769 28.3059 55.1509 28.1349C55.4289 27.9683 55.7465 27.8826 56.0691 27.8874C56.3942 27.8785 56.7141 27.9727 56.9843 28.1569ZM55.4502 28.9683C55.239 29.2463 55.1244 29.5879 55.1244 29.9393C55.1244 30.2908 55.239 30.6323 55.4502 30.9103C55.5617 31.0277 55.6962 31.1198 55.845 31.1806C55.9938 31.2414 56.1535 31.2696 56.3137 31.2633C56.5293 31.266 56.7417 31.2093 56.9282 31.0993C57.1111 30.9882 57.2604 30.8281 57.3599 30.6365C57.4689 30.4212 57.5228 30.1814 57.5168 29.9393C57.5217 29.6978 57.4678 29.4588 57.3599 29.2436C57.2622 29.0503 57.1124 28.8893 56.9282 28.7793C56.7422 28.6678 56.5295 28.611 56.3137 28.6153C56.1542 28.6095 55.9952 28.6379 55.8472 28.6987C55.6992 28.7595 55.5654 28.8514 55.4546 28.9683H55.4502Z" fill="#EA650A"/>
<path d="M60.4511 31.2487H62.4745V31.9458H59.5531V31.2838L61.4686 28.6373H59.5977V27.9387H62.3997V28.6007L60.4511 31.2487Z" fill="#EA650A"/>
</g>
<defs>
<clipPath id="clip0_424_21541">
<rect width="72" height="32" fill="white"/>
</clipPath>
</defs>
</svg>
