<svg width="26" height="26" viewBox="0 0 26 26" fill="none" xmlns="http://www.w3.org/2000/svg">
<path d="M17.539 2.16666H8.46067C4.51734 2.16666 2.1665 4.51749 2.1665 8.46082V17.5283C2.1665 21.4825 4.51734 23.8333 8.46067 23.8333H17.5282C21.4715 23.8333 23.8223 21.4825 23.8223 17.5392V8.46082C23.8332 4.51749 21.4823 2.16666 17.539 2.16666ZM18.4165 18.6875H7.58317C7.139 18.6875 6.77067 18.3192 6.77067 17.875C6.77067 17.4308 7.139 17.0625 7.58317 17.0625H18.4165C18.8607 17.0625 19.229 17.4308 19.229 17.875C19.229 18.3192 18.8607 18.6875 18.4165 18.6875ZM18.4165 13.8125H7.58317C7.139 13.8125 6.77067 13.4442 6.77067 13C6.77067 12.5558 7.139 12.1875 7.58317 12.1875H18.4165C18.8607 12.1875 19.229 12.5558 19.229 13C19.229 13.4442 18.8607 13.8125 18.4165 13.8125ZM18.4165 8.93749H7.58317C7.139 8.93749 6.77067 8.56916 6.77067 8.12499C6.77067 7.68082 7.139 7.31249 7.58317 7.31249H18.4165C18.8607 7.31249 19.229 7.68082 19.229 8.12499C19.229 8.56916 18.8607 8.93749 18.4165 8.93749Z" fill="white"/>
</svg>
