<svg width="20" height="14" viewBox="0 0 20 14" fill="none" xmlns="http://www.w3.org/2000/svg">
<path d="M19.6258 5.58608C19.4424 6.1934 19.0422 6.43517 18.4733 6.39876C18.3756 6.39147 18.2765 6.39876 18.1493 6.39876C18.1908 6.46866 18.2149 6.51236 18.2417 6.55459C18.5135 6.98221 18.6567 7.4911 18.6513 8.01101C18.6513 9.77618 18.6513 11.5414 18.6513 13.3051C18.6513 13.6663 18.4786 13.8672 18.1453 13.8702C17.2637 13.876 16.3806 13.876 15.4963 13.8702C15.1509 13.8702 14.9743 13.659 14.9716 13.2759C14.9716 13.1303 14.9716 12.9847 14.9716 12.8303H5.03536C5.03536 12.9963 5.03536 13.158 5.03536 13.3196C5.02733 13.6517 4.85198 13.8658 4.54678 13.8687C3.64637 13.8774 2.74462 13.8774 1.84153 13.8687C1.5283 13.8687 1.35696 13.6619 1.35696 13.324C1.35696 11.5384 1.35696 9.75433 1.35696 7.96877C1.36193 7.39719 1.54186 6.84371 1.8683 6.39584C1.65948 6.39584 1.48279 6.39584 1.3061 6.39584C1.11371 6.39362 0.926619 6.327 0.770237 6.20506C0.613855 6.08311 0.495766 5.91175 0.432011 5.71424C0.368252 5.52714 0.358172 5.32338 0.403104 5.12991C0.448036 4.93644 0.545864 4.76236 0.683661 4.63067C0.847727 4.45827 1.06731 4.3626 1.29539 4.36414C1.70232 4.36414 2.10924 4.36414 2.51617 4.36414C2.6532 4.36829 2.78789 4.40375 2.9115 4.46824C3.03511 4.53272 3.14487 4.62479 3.23364 4.73844C3.27514 4.55639 3.30592 4.39619 3.34742 4.2389C3.61513 3.23688 3.88285 2.23196 4.16663 1.23431C4.30048 0.734764 4.64851 0.466785 5.11701 0.402703C5.60693 0.337165 6.09952 0.257061 6.58944 0.242497C8.06187 0.185697 9.54233 0.105596 11.0188 0.130355C12.3051 0.152201 13.5902 0.296385 14.8752 0.402703C15.1006 0.410599 15.3175 0.497963 15.4932 0.651633C15.669 0.805303 15.7941 1.01696 15.8497 1.25471C16.1522 2.34556 16.436 3.43932 16.7278 4.53892C16.7425 4.59717 16.7546 4.65688 16.776 4.74718C17.0437 4.39619 17.3864 4.34376 17.7558 4.35978C18.0436 4.37143 18.3327 4.35978 18.6205 4.35978C19.1118 4.35978 19.4103 4.58406 19.591 5.08798C19.6007 5.10424 19.6124 5.11895 19.6258 5.13168V5.58608ZM15.8631 4.95545C15.639 3.80056 15.3379 2.66496 14.9622 1.55764C14.9421 1.51868 14.914 1.48528 14.8801 1.46002C14.8462 1.43477 14.8074 1.41833 14.7668 1.412C13.9261 1.32461 13.0869 1.20082 12.2449 1.18043C10.7502 1.14256 9.25454 1.14256 7.75801 1.18043C6.92274 1.20227 6.09015 1.32607 5.25488 1.4018C5.19554 1.40264 5.13836 1.42614 5.09334 1.46821C5.04831 1.51027 5.01831 1.56822 5.00859 1.63192C4.78103 2.45625 4.54812 3.28058 4.32591 4.10782C4.25095 4.38891 4.20143 4.67727 4.14119 4.95982C8.02124 4.25128 11.9826 4.2498 15.8631 4.95545ZM10.0001 9.50529H9.62532C8.94265 9.50529 8.25998 9.50529 7.57731 9.50529C7.507 9.50086 7.43666 9.51312 7.37114 9.54121C7.30562 9.5693 7.24649 9.61254 7.19786 9.66795C7.14922 9.72336 7.11224 9.78962 7.08947 9.86212C7.06669 9.93462 7.05867 10.0116 7.06597 10.0879C7.08337 10.3937 7.30156 10.5845 7.64423 10.5845H12.3587C12.4151 10.5855 12.4714 10.5821 12.5273 10.5743C12.651 10.5503 12.7617 10.4762 12.8371 10.3669C12.9125 10.2576 12.9471 10.1213 12.9339 9.98544C12.9206 9.84955 12.8606 9.72416 12.7658 9.63452C12.671 9.54489 12.5485 9.49767 12.4229 9.50237C11.6171 9.50092 10.81 9.50529 10.0001 9.50529ZM3.15333 8.26442C3.1519 8.41417 3.17791 8.56273 3.22984 8.70142C3.28178 8.84011 3.35858 8.96615 3.45579 9.07218C3.55299 9.17821 3.66863 9.26211 3.79597 9.31896C3.9233 9.37582 4.05978 9.40451 4.19741 9.40334C4.33707 9.40526 4.47569 9.37707 4.60527 9.32038C4.73486 9.2637 4.85284 9.17964 4.9524 9.07307C5.05196 8.96651 5.13114 8.83953 5.18536 8.69949C5.23957 8.55944 5.26775 8.4091 5.26827 8.25714C5.26379 7.95467 5.15136 7.66596 4.95476 7.45205C4.75816 7.23814 4.49281 7.11582 4.21481 7.11094C4.0752 7.10939 3.9367 7.13816 3.80743 7.19557C3.67816 7.25299 3.56071 7.33789 3.46198 7.44532C3.36325 7.55274 3.28522 7.68052 3.23245 7.82117C3.17968 7.96182 3.15323 8.11251 3.15467 8.26442H3.15333ZM16.8496 8.24694C16.8482 7.94462 16.7366 7.65524 16.5394 7.44229C16.3421 7.22933 16.0753 7.11017 15.7975 7.11094C15.516 7.11515 15.2474 7.23977 15.0498 7.45781C14.8521 7.67586 14.7413 7.96982 14.7413 8.27607C14.7463 8.57843 14.8604 8.86653 15.059 9.07803C15.2577 9.28954 15.5249 9.40745 15.8028 9.40625C15.9424 9.40808 16.0809 9.3792 16.21 9.32134C16.339 9.26349 16.456 9.17785 16.5539 9.06958C16.6518 8.9613 16.7286 8.83262 16.7796 8.69125C16.8306 8.54989 16.8549 8.39876 16.8509 8.24694H16.8496Z" fill="#B8B8B8"/>
</svg>
