<svg width="18" height="18" viewBox="0 0 18 18" fill="none" xmlns="http://www.w3.org/2000/svg">
<path d="M15.0302 5.115L10.7102 2.0925C9.53268 1.2675 7.72518 1.3125 6.59268 2.19L2.83518 5.1225C2.08518 5.7075 1.49268 6.9075 1.49268 7.8525V13.0275C1.49268 14.94 3.04518 16.5 4.95768 16.5H13.0427C14.9552 16.5 16.5077 14.9475 16.5077 13.035V7.95C16.5077 6.9375 15.8552 5.6925 15.0302 5.115ZM9.56268 13.5C9.56268 13.8075 9.30768 14.0625 9.00018 14.0625C8.69268 14.0625 8.43768 13.8075 8.43768 13.5V11.25C8.43768 10.9425 8.69268 10.6875 9.00018 10.6875C9.30768 10.6875 9.56268 10.9425 9.56268 11.25V13.5Z" fill="#B8B8B8"/>
</svg>
