<svg width="16" height="16" viewBox="0 0 16 16" fill="none" xmlns="http://www.w3.org/2000/svg">
<path d="M14.0299 4.115L9.70993 1.0925C8.53243 0.267499 6.72493 0.312499 5.59243 1.19L1.83493 4.1225C1.08493 4.7075 0.492432 5.9075 0.492432 6.8525V12.0275C0.492432 13.94 2.04493 15.5 3.95743 15.5H12.0424C13.9549 15.5 15.5074 13.9475 15.5074 12.035V6.95C15.5074 5.9375 14.8549 4.6925 14.0299 4.115ZM8.56243 12.5C8.56243 12.8075 8.30743 13.0625 7.99993 13.0625C7.69243 13.0625 7.43743 12.8075 7.43743 12.5V10.25C7.43743 9.9425 7.69243 9.6875 7.99993 9.6875C8.30743 9.6875 8.56243 9.9425 8.56243 10.25V12.5Z" fill="white"/>
</svg>
