<svg width="20" height="14" viewBox="0 0 20 14" fill="none" xmlns="http://www.w3.org/2000/svg">
<path d="M19.6263 5.58608C19.4429 6.1934 19.0427 6.43517 18.4738 6.39876C18.3761 6.39147 18.277 6.39876 18.1498 6.39876C18.1913 6.46866 18.2154 6.51236 18.2422 6.55459C18.514 6.98221 18.6572 7.4911 18.6518 8.01101C18.6518 9.77618 18.6518 11.5414 18.6518 13.3051C18.6518 13.6663 18.4791 13.8672 18.1458 13.8702C17.2641 13.876 16.3811 13.876 15.4968 13.8702C15.1514 13.8702 14.9747 13.659 14.9721 13.2759C14.9721 13.1303 14.9721 12.9847 14.9721 12.8303H5.03585C5.03585 12.9963 5.03585 13.158 5.03585 13.3196C5.02782 13.6517 4.85246 13.8658 4.54727 13.8687C3.64686 13.8774 2.74511 13.8774 1.84202 13.8687C1.52879 13.8687 1.35745 13.6619 1.35745 13.324C1.35745 11.5384 1.35745 9.75433 1.35745 7.96877C1.36242 7.39719 1.54235 6.84371 1.86879 6.39584C1.65997 6.39584 1.48328 6.39584 1.30659 6.39584C1.1142 6.39362 0.927107 6.327 0.770725 6.20506C0.614343 6.08311 0.496255 5.91175 0.4325 5.71424C0.36874 5.52714 0.35866 5.32338 0.403592 5.12991C0.448524 4.93644 0.546353 4.76236 0.68415 4.63067C0.848215 4.45827 1.06779 4.3626 1.29588 4.36414C1.7028 4.36414 2.10973 4.36414 2.51665 4.36414C2.65369 4.36829 2.78838 4.40375 2.91199 4.46824C3.0356 4.53272 3.14536 4.62479 3.23413 4.73844C3.27562 4.55639 3.30641 4.39619 3.34791 4.2389C3.61562 3.23688 3.88334 2.23196 4.16711 1.23431C4.30097 0.734764 4.649 0.466785 5.1175 0.402703C5.60742 0.337165 6.10001 0.257061 6.58993 0.242497C8.06236 0.185697 9.54282 0.105596 11.0193 0.130355C12.3056 0.152201 13.5907 0.296385 14.8757 0.402703C15.101 0.410599 15.3179 0.497963 15.4937 0.651633C15.6695 0.805303 15.7946 1.01696 15.8502 1.25471C16.1527 2.34556 16.4365 3.43932 16.7283 4.53892C16.743 4.59717 16.755 4.65688 16.7765 4.74718C17.0442 4.39619 17.3868 4.34376 17.7563 4.35978C18.0441 4.37143 18.3332 4.35978 18.621 4.35978C19.1123 4.35978 19.4108 4.58406 19.5915 5.08798C19.6012 5.10424 19.6129 5.11895 19.6263 5.13168V5.58608ZM15.8636 4.95545C15.6394 3.80056 15.3384 2.66496 14.9627 1.55764C14.9426 1.51868 14.9145 1.48528 14.8806 1.46002C14.8467 1.43477 14.8079 1.41833 14.7673 1.412C13.9266 1.32461 13.0874 1.20082 12.2454 1.18043C10.7507 1.14256 9.25502 1.14256 7.7585 1.18043C6.92323 1.20227 6.09064 1.32607 5.25537 1.4018C5.19603 1.40264 5.13885 1.42614 5.09383 1.46821C5.0488 1.51027 5.0188 1.56822 5.00907 1.63192C4.78152 2.45625 4.5486 3.28058 4.3264 4.10782C4.25144 4.38891 4.20192 4.67727 4.14168 4.95982C8.02173 4.25128 11.9831 4.2498 15.8636 4.95545ZM10.0006 9.50529H9.62581C8.94314 9.50529 8.26047 9.50529 7.57779 9.50529C7.50749 9.50086 7.43715 9.51312 7.37163 9.54121C7.30611 9.5693 7.24698 9.61254 7.19835 9.66795C7.14971 9.72336 7.11273 9.78962 7.08995 9.86212C7.06718 9.93462 7.05916 10.0116 7.06646 10.0879C7.08386 10.3937 7.30205 10.5845 7.64472 10.5845H12.3592C12.4155 10.5855 12.4719 10.5821 12.5278 10.5743C12.6515 10.5503 12.7622 10.4762 12.8376 10.3669C12.913 10.2576 12.9476 10.1213 12.9344 9.98544C12.9211 9.84955 12.861 9.72416 12.7662 9.63452C12.6714 9.54489 12.5489 9.49767 12.4234 9.50237C11.6176 9.50092 10.8104 9.50529 10.0006 9.50529ZM3.15382 8.26442C3.15239 8.41417 3.1784 8.56273 3.23033 8.70142C3.28226 8.84011 3.35907 8.96615 3.45628 9.07218C3.55348 9.17821 3.66912 9.26211 3.79646 9.31896C3.92379 9.37582 4.06026 9.40451 4.1979 9.40334C4.33755 9.40526 4.47618 9.37707 4.60576 9.32038C4.73535 9.2637 4.85333 9.17964 4.95289 9.07307C5.05245 8.96651 5.13163 8.83953 5.18584 8.69949C5.24006 8.55944 5.26824 8.4091 5.26876 8.25714C5.26428 7.95467 5.15185 7.66596 4.95525 7.45205C4.75865 7.23814 4.4933 7.11582 4.2153 7.11094C4.07568 7.10939 3.93718 7.13816 3.80791 7.19557C3.67864 7.25299 3.5612 7.33789 3.46247 7.44532C3.36374 7.55274 3.28571 7.68052 3.23294 7.82117C3.18017 7.96182 3.15372 8.11251 3.15515 8.26442H3.15382ZM16.8501 8.24694C16.8487 7.94462 16.7371 7.65524 16.5399 7.44229C16.3426 7.22933 16.0758 7.11017 15.798 7.11094C15.5165 7.11515 15.2479 7.23977 15.0503 7.45781C14.8526 7.67586 14.7418 7.96982 14.7418 8.27607C14.7468 8.57843 14.8609 8.86653 15.0595 9.07803C15.2582 9.28954 15.5254 9.40745 15.8033 9.40625C15.9429 9.40808 16.0814 9.3792 16.2104 9.32134C16.3395 9.26349 16.4565 9.17785 16.5544 9.06958C16.6523 8.9613 16.7291 8.83262 16.7801 8.69125C16.8311 8.54989 16.8554 8.39876 16.8514 8.24694H16.8501Z" fill="white"/>
</svg>
