<svg width="18" height="15" viewBox="0 0 18 15" fill="none" xmlns="http://www.w3.org/2000/svg">
<path d="M8.9566 11.2428H2.05349C1.23246 11.2428 1.21189 11.2428 1.11349 10.4765C0.841769 8.38306 0.589146 6.28811 0.327708 4.19463C0.286584 3.85359 0.204332 3.51403 0.19552 3.17299C0.177895 2.49387 0.678738 2.17645 1.26036 2.50568C1.68483 2.74633 2.07699 3.04602 2.47942 3.32358C2.80695 3.54799 2.87158 3.86098 2.78639 4.23154C2.7274 4.46844 2.68858 4.70996 2.67036 4.95348C2.6263 5.91754 2.96411 6.69115 3.85858 7.13406C4.77801 7.5873 5.68129 7.51053 6.4656 6.85651C7.24991 6.20248 7.39532 5.32552 7.14269 4.3777C7.03998 4.02645 6.88764 3.69184 6.69032 3.38411C6.44504 2.98697 6.46266 2.65627 6.78579 2.32409C7.31454 1.77636 7.82713 1.21387 8.35882 0.672042C8.83763 0.184844 9.12256 0.180415 9.59844 0.658755C10.1169 1.18139 10.6266 1.71583 11.1201 2.25765C11.5504 2.72566 11.5724 2.88215 11.2346 3.4225C10.8857 3.96073 10.7126 4.59507 10.7397 5.23694C10.7911 6.47413 11.7149 7.38061 12.9751 7.40718C14.2118 7.43228 15.2252 6.54647 15.3045 5.3329C15.3142 4.99128 15.2797 4.64983 15.2017 4.31717C15.1077 3.8595 15.1797 3.49927 15.6027 3.23943C15.9376 3.03569 16.2533 2.79652 16.575 2.57802C16.854 2.38462 17.1537 2.28275 17.4636 2.4732C17.8087 2.68284 17.822 3.02536 17.775 3.38559C17.6281 4.48105 17.493 5.5765 17.349 6.67048C17.1742 7.98444 17.0083 9.2984 16.8129 10.6094C16.7204 11.2339 16.694 11.2413 16.0712 11.2428C13.7065 11.2428 11.335 11.2428 8.9566 11.2428Z" fill="#B8B8B8"/>
<path d="M9.07421 12.5626C11.2959 12.5626 13.5181 12.5626 15.7409 12.5626C16.5002 12.5626 16.6471 12.7457 16.462 13.4898C16.3342 13.9962 16.0419 14.3756 15.5073 14.4981C15.198 14.562 14.8831 14.5937 14.5673 14.5926C10.8778 14.5995 7.18932 14.5995 3.50178 14.5926C3.16161 14.5922 2.82225 14.5591 2.48834 14.4937C2.01247 14.4022 1.729 14.067 1.57625 13.6256C1.29425 12.8195 1.47932 12.5611 2.33266 12.5611C4.57984 12.5602 6.82703 12.5607 9.07421 12.5626Z" fill="#B8B8B8"/>
</svg>
