<svg width="18" height="18" viewBox="0 0 18 18" fill="none" xmlns="http://www.w3.org/2000/svg">
<path d="M16.6991 5.99478L16.4841 4.13665C16.1727 2.11081 15.157 1.28571 12.9846 1.28571H11.2349H10.1376H7.88372H6.78643H5.00704C2.82729 1.28571 1.81897 2.11081 1.50016 4.15677L1.29998 6.00149C1.22584 6.71925 1.44085 7.41689 1.90794 7.96025C2.47141 8.62435 3.33887 9 4.3027 9C5.23688 9 6.13399 8.57739 6.69746 7.89987C7.20162 8.57739 8.06166 9 9.01808 9C9.9745 9 10.8123 8.59751 11.3239 7.92671C11.8948 8.59081 12.777 9 13.6964 9C14.6825 9 15.5722 8.60422 16.1282 7.90658C16.5731 7.36994 16.7733 6.69242 16.6991 5.99478Z" fill="#B8B8B8"/>
<path d="M8.51234 12.495C7.55984 12.5925 6.83984 13.4025 6.83984 14.3625V16.4175C6.83984 16.62 7.00484 16.785 7.20734 16.785H10.7848C10.9873 16.785 11.1523 16.62 11.1523 16.4175V14.625C11.1598 13.0575 10.2373 12.315 8.51234 12.495Z" fill="#B8B8B8"/>
<path d="M15.4284 10.4327V12.7784C15.4284 14.951 13.8916 16.7143 11.998 16.7143C11.8128 16.7143 11.6619 16.5411 11.6619 16.3286V14.4472C11.6619 13.4397 11.3943 12.6525 10.8729 12.1172C10.4132 11.637 9.78885 11.4009 9.01358 11.4009C8.84206 11.4009 8.67054 11.4087 8.4853 11.4324C7.26408 11.5741 6.33787 12.7548 6.33787 14.1717V16.3286C6.33787 16.5411 6.18693 16.7143 6.00169 16.7143C4.10811 16.7143 2.57129 14.951 2.57129 12.7784V10.4484C2.57129 9.89738 3.04468 9.5274 3.49064 9.70845C3.67588 9.7793 3.86112 9.8344 4.05322 9.86589C4.13555 9.88163 4.22474 9.89738 4.30707 9.89738C4.41684 9.91312 4.52662 9.92099 4.63639 9.92099C5.43224 9.92099 6.21437 9.58251 6.83185 9C7.42188 9.58251 8.19029 9.92099 8.99986 9.92099C9.8163 9.92099 10.571 9.59825 11.161 9.01574C11.7785 9.59038 12.5469 9.92099 13.329 9.92099C13.4525 9.92099 13.576 9.91312 13.6926 9.89738C13.775 9.8895 13.8504 9.88163 13.9259 9.86589C14.1386 9.8344 14.3307 9.76356 14.5228 9.69271C14.9688 9.51953 15.4284 9.89738 15.4284 10.4327Z" fill="#B8B8B8"/>
</svg>
