<svg width="14" height="14" viewBox="0 0 14 14" fill="none" xmlns="http://www.w3.org/2000/svg">
<path d="M11.2416 9.121L10.1811 8.0605L11.2416 7C11.5202 6.72142 11.7412 6.39069 11.8919 6.02671C12.0427 5.66272 12.1203 5.2726 12.1203 4.87863C12.1203 4.48465 12.0427 4.09453 11.8919 3.73055C11.7412 3.36656 11.5202 3.03584 11.2416 2.75725C10.963 2.47867 10.6323 2.25769 10.2683 2.10692C9.90432 1.95615 9.5142 1.87855 9.12022 1.87855C8.72625 1.87855 8.33613 1.95615 7.97215 2.10692C7.60816 2.25769 7.27743 2.47867 6.99885 2.75725L5.93835 3.81775L4.87785 2.75725L5.93835 1.69675C6.78458 0.864192 7.92552 0.399745 9.11264 0.404578C10.2998 0.409412 11.4369 0.883136 12.2763 1.72256C13.1157 2.56199 13.5894 3.6991 13.5943 4.88622C13.5991 6.07333 13.1347 7.21427 12.3021 8.0605L11.2416 9.121ZM9.11985 11.2428L8.05935 12.3033C7.64274 12.7267 7.14641 13.0635 6.599 13.2942C6.05158 13.5248 5.46391 13.6448 4.86989 13.6473C4.27586 13.6497 3.68723 13.5345 3.13796 13.3082C2.58868 13.082 2.08963 12.7493 1.66958 12.3293C1.24954 11.9092 0.916816 11.4102 0.690607 10.8609C0.464399 10.3116 0.349181 9.72299 0.3516 9.12897C0.354019 8.53494 0.474026 7.94727 0.7047 7.39985C0.935374 6.85244 1.27215 6.35611 1.6956 5.9395L2.7561 4.879L3.8166 5.9395L2.7561 7C2.47752 7.27859 2.25653 7.60931 2.10577 7.9733C1.955 8.33728 1.8774 8.7274 1.8774 9.12138C1.8774 9.51535 1.955 9.90547 2.10577 10.2695C2.25653 10.6334 2.47752 10.9642 2.7561 11.2428C3.03468 11.5213 3.36541 11.7423 3.7294 11.8931C4.09338 12.0439 4.4835 12.1215 4.87748 12.1215C5.27145 12.1215 5.66157 12.0439 6.02556 11.8931C6.38954 11.7423 6.72027 11.5213 6.99885 11.2428L8.05935 10.1823L9.11985 11.2428ZM9.11985 3.81775L10.1811 4.879L4.87785 10.1815L3.8166 9.121L9.11985 3.8185V3.81775Z" fill="#EA650A"/>
</svg>
