<svg width="16" height="16" viewBox="0 0 16 16" fill="none" xmlns="http://www.w3.org/2000/svg">
<path fill-rule="evenodd" clip-rule="evenodd" d="M5.6333 7.79999C5.6333 7.52385 5.85716 7.29999 6.1333 7.29999H9.46663C9.74278 7.29999 9.96663 7.52385 9.96663 7.79999C9.96663 8.07613 9.74278 8.29999 9.46663 8.29999H6.1333C5.85716 8.29999 5.6333 8.07613 5.6333 7.79999Z" fill="white"/>
<path fill-rule="evenodd" clip-rule="evenodd" d="M7.7998 5.63333C8.07595 5.63333 8.2998 5.85719 8.2998 6.13333V9.46666C8.2998 9.74281 8.07595 9.96666 7.7998 9.96666C7.52366 9.96666 7.2998 9.74281 7.2998 9.46666V6.13333C7.2998 5.85719 7.52366 5.63333 7.7998 5.63333Z" fill="white"/>
<path fill-rule="evenodd" clip-rule="evenodd" d="M7.66659 1.83333C4.44492 1.83333 1.83325 4.445 1.83325 7.66666C1.83325 10.8883 4.44492 13.5 7.66659 13.5C10.8882 13.5 13.4999 10.8883 13.4999 7.66666C13.4999 4.445 10.8882 1.83333 7.66659 1.83333ZM0.833252 7.66666C0.833252 3.89272 3.89264 0.833328 7.66659 0.833328C11.4405 0.833328 14.4999 3.89272 14.4999 7.66666C14.4999 11.4406 11.4405 14.5 7.66659 14.5C3.89264 14.5 0.833252 11.4406 0.833252 7.66666Z" fill="white"/>
<path fill-rule="evenodd" clip-rule="evenodd" d="M12.9797 12.9798C13.175 12.7845 13.4915 12.7845 13.6868 12.9798L15.0201 14.3131C15.2154 14.5084 15.2154 14.825 15.0201 15.0202C14.8249 15.2155 14.5083 15.2155 14.313 15.0202L12.9797 13.6869C12.7844 13.4916 12.7844 13.175 12.9797 12.9798Z" fill="white"/>
</svg>
