<svg width="36" height="36" viewBox="0 0 36 36" fill="none" xmlns="http://www.w3.org/2000/svg">
<path d="M27 28.29H25.86C24.66 28.29 23.52 28.755 22.68 29.595L20.115 32.13C18.945 33.285 17.04 33.285 15.87 32.13L13.305 29.595C12.465 28.755 11.31 28.29 10.125 28.29H9C6.51 28.29 4.5 26.295 4.5 23.835V7.455C4.5 4.995 6.51 3 9 3H27C29.49 3 31.5 4.995 31.5 7.455V23.82C31.5 26.28 29.49 28.29 27 28.29Z" stroke="#2C2C2C" stroke-width="2.2" stroke-miterlimit="10" stroke-linecap="round" stroke-linejoin="round"/>
<path d="M18.1051 13.425C18.0451 13.425 17.9551 13.425 17.8801 13.425C16.3051 13.365 15.0601 12.09 15.0601 10.5C15.0601 8.88001 16.3651 7.57501 17.9851 7.57501C19.6051 7.57501 20.9101 8.89501 20.9101 10.5C20.9251 12.09 19.6801 13.38 18.1051 13.425Z" stroke="#2C2C2C" stroke-width="2.2" stroke-linecap="round" stroke-linejoin="round"/>
<path d="M13.875 17.94C11.88 19.275 11.88 21.45 13.875 22.785C16.14 24.3 19.86 24.3 22.125 22.785C24.12 21.45 24.12 19.275 22.125 17.94C19.86 16.44 16.155 16.44 13.875 17.94Z" stroke="#2C2C2C" stroke-width="2.2" stroke-linecap="round" stroke-linejoin="round"/>
</svg>
