<svg width="36" height="36" viewBox="0 0 36 36" fill="none" xmlns="http://www.w3.org/2000/svg">
<path fill-rule="evenodd" clip-rule="evenodd" d="M4.51489 15.705C5.13621 15.705 5.63989 16.2087 5.63989 16.83V23.565C5.63989 26.8209 6.29933 28.8097 7.50226 30.0126C8.70519 31.2155 10.694 31.875 13.9499 31.875H22.0349C25.2908 31.875 27.2796 31.2155 28.4825 30.0126C29.6855 28.8097 30.3449 26.8209 30.3449 23.565V16.83C30.3449 16.2087 30.8486 15.705 31.4699 15.705C32.0912 15.705 32.5949 16.2087 32.5949 16.83V23.565C32.5949 27.0441 31.9043 29.7728 30.0735 31.6036C28.2427 33.4344 25.514 34.125 22.0349 34.125H13.9499C10.4708 34.125 7.74209 33.4344 5.91127 31.6036C4.08045 29.7728 3.38989 27.0441 3.38989 23.565V16.83C3.38989 16.2087 3.89357 15.705 4.51489 15.705Z" fill="#2C2C2C"/>
<path fill-rule="evenodd" clip-rule="evenodd" d="M13.3854 2.88773C13.4431 2.31277 13.927 1.875 14.5048 1.875H21.5098C22.0883 1.875 22.5725 2.31371 22.6294 2.88939L23.6194 12.9094C23.9542 16.3135 21.4122 19.125 17.9998 19.125C14.5874 19.125 12.0454 16.314 12.3802 12.9099L13.3854 2.88773ZM15.5226 4.125L14.6194 13.1301C14.6194 13.1305 14.6194 13.1298 14.6194 13.1301C14.4148 15.2156 15.9226 16.875 17.9998 16.875C20.0772 16.875 21.5852 15.2163 21.3803 13.1306C21.3803 13.1305 21.3803 13.1308 21.3803 13.1306L20.4905 4.125H15.5226Z" fill="#2C2C2C"/>
<path fill-rule="evenodd" clip-rule="evenodd" d="M20.6159 2.24506C20.8291 2.00943 21.1321 1.875 21.45 1.875H26.025C28.1052 1.875 29.806 2.26706 31.0445 3.4111C32.2683 4.54145 32.8279 6.21312 33.1093 8.2457C33.1112 8.25912 33.1128 8.27257 33.1142 8.28604L33.5344 12.4136C33.9001 16.0884 31.1626 19.125 27.465 19.125C24.4135 19.125 21.695 16.6791 21.3809 13.6303L21.3805 13.6268L20.3305 3.11178C20.2989 2.79554 20.4026 2.48069 20.6159 2.24506ZM22.6929 4.125L23.619 13.3997C23.6191 13.4002 23.6191 13.4008 23.6192 13.4013C23.8159 15.3018 25.567 16.875 27.465 16.875C29.8269 16.875 31.5292 14.9922 31.2956 12.6376C31.2956 12.6372 31.2957 12.6381 31.2956 12.6376L30.8778 8.53449C30.6188 6.6796 30.1594 5.65644 29.5179 5.0639C28.8889 4.48294 27.8747 4.125 26.025 4.125H22.6929Z" fill="#2C2C2C"/>
<path fill-rule="evenodd" clip-rule="evenodd" d="M4.86531 3.4111C6.10386 2.26706 7.80466 1.875 9.8849 1.875H14.4599C14.7778 1.875 15.0808 2.00945 15.294 2.24512C15.5073 2.48079 15.611 2.79567 15.5793 3.11194L14.5297 13.6236C14.5296 13.6241 14.5297 13.6231 14.5297 13.6236C14.2326 16.6786 11.5095 19.125 8.4599 19.125C4.76255 19.125 2.02517 16.0889 2.39035 12.4144C2.39033 12.4147 2.39038 12.4141 2.39035 12.4144L2.79529 8.29007C2.79674 8.27525 2.79849 8.26046 2.80054 8.2457C3.08197 6.21312 3.64159 4.54145 4.86531 3.4111ZM5.0323 8.53252L4.62952 12.6349C4.39518 14.9901 6.09752 16.875 8.4599 16.875C10.3598 16.875 12.1065 15.3007 12.2902 13.4064L12.2904 13.4036L13.2168 4.125H9.8849C8.03515 4.125 7.02095 4.48294 6.392 5.0639C5.75073 5.65623 5.29143 6.67888 5.0323 8.53252Z" fill="#2C2C2C"/>
<path fill-rule="evenodd" clip-rule="evenodd" d="M14.3901 25.6401C15.3007 24.7295 16.5758 24.375 18 24.375C19.4242 24.375 20.6993 24.7295 21.6099 25.6401C22.5205 26.5507 22.875 27.8258 22.875 29.25V33C22.875 33.6213 22.3713 34.125 21.75 34.125H14.25C13.6287 34.125 13.125 33.6213 13.125 33V29.25C13.125 27.8258 13.4795 26.5507 14.3901 25.6401ZM15.9811 27.2311C15.643 27.5693 15.375 28.1692 15.375 29.25V31.875H20.625V29.25C20.625 28.1692 20.357 27.5693 20.0189 27.2311C19.6807 26.893 19.0808 26.625 18 26.625C16.9192 26.625 16.3193 26.893 15.9811 27.2311Z" fill="#2C2C2C"/>
</svg>
