<svg width="36" height="36" viewBox="0 0 36 36" fill="none" xmlns="http://www.w3.org/2000/svg">
<path fill-rule="evenodd" clip-rule="evenodd" d="M6.14575 5.12606C5.02151 5.03159 4.125 5.85887 4.125 6.99V25.11C4.125 25.9915 4.8812 26.8551 5.74952 26.9637L5.76384 26.9655L6.19406 27.025C6.19489 27.0251 6.19571 27.0252 6.19653 27.0253C9.58196 27.4782 14.7229 29.1652 17.7257 30.8026L17.7669 30.8232M17.8096 30.8456C17.8103 30.8458 17.8248 30.8526 17.8558 30.8596C17.8927 30.868 17.9394 30.8737 17.9906 30.8737C18.0419 30.8737 18.0864 30.868 18.1189 30.8605C18.1358 30.8566 18.1457 30.8531 18.1495 30.8517L18.1611 30.8449C21.1632 29.1875 26.3374 27.4784 29.7466 27.0249L29.7595 27.0232L30.2505 26.9637C30.2511 26.9636 30.2516 26.9635 30.2522 26.9635C31.1198 26.854 31.875 25.9909 31.875 25.11V7.00501C31.875 5.86975 30.9743 5.04569 29.8392 5.14107C29.8079 5.14371 29.7765 5.14503 29.745 5.14503H29.7027C29.6769 5.14726 29.651 5.14958 29.625 5.15198V12C29.625 12.4147 29.3969 12.7957 29.0314 12.9916C28.6659 13.1875 28.2223 13.1664 27.877 12.9368L25.5 11.3561L23.123 12.9368C22.7777 13.1664 22.3341 13.1875 21.9686 12.9916C21.6031 12.7957 21.375 12.4147 21.375 12V7.5993C20.7326 7.9052 20.1497 8.21798 19.6515 8.52578L19.3884 8.69601C18.9509 8.96758 18.443 9.0675 18 9.0675C17.5599 9.0675 17.0558 8.96871 16.6202 8.70113L16.2346 8.46979C13.7152 6.89871 9.11797 5.36667 6.14919 5.12634L6.14575 5.12606M6.33245 2.88382C3.88747 2.67931 1.875 4.55169 1.875 6.99V25.11C1.875 27.106 3.45475 28.9402 5.46277 29.1953L5.8912 29.2545L5.89602 29.2551C9.01344 29.6718 13.906 31.2782 16.6652 32.7871C16.6714 32.7905 16.6776 32.7938 16.6839 32.7971C16.6903 32.8004 16.6967 32.8037 16.7031 32.8069L16.7446 32.8276C17.1457 33.0433 17.5959 33.1237 17.9906 33.1237C18.3881 33.1237 18.8495 33.0421 19.256 32.8108C22.0134 31.2904 26.9086 29.6736 30.0369 29.2561L30.5255 29.1968L30.5296 29.1963C32.5412 28.9448 34.125 27.1086 34.125 25.11V7.00501C34.125 4.55732 32.1138 2.71992 29.7013 2.89503H29.655C29.6238 2.89503 29.5927 2.89632 29.5616 2.89891C29.1763 2.93102 28.7473 2.98016 28.2952 3.06389C27.7619 3.16264 27.375 3.62777 27.375 4.17008V9.90085L26.123 9.06824C25.7456 8.81727 25.2544 8.81727 24.877 9.06824L23.625 9.90085V5.88001C23.625 5.50631 23.4394 5.15701 23.1298 4.94781C22.8201 4.73861 22.4268 4.69683 22.0801 4.8363C20.7341 5.37782 19.4725 5.99034 18.4579 6.61847L18.4389 6.63049L18.2018 6.78388C18.197 6.78612 18.1812 6.79303 18.1523 6.80024C18.1114 6.81042 18.0587 6.8175 18 6.8175C17.9413 6.8175 17.8886 6.81042 17.8477 6.80024C17.8172 6.79265 17.8014 6.78538 17.7975 6.78356L17.4168 6.55521C14.5953 4.79856 9.66034 3.15365 6.33245 2.88382Z" fill="#2C2C2C"/>
<path fill-rule="evenodd" clip-rule="evenodd" d="M18 7.10999C18.6213 7.10999 19.125 7.61366 19.125 8.23499V30.735C19.125 31.3563 18.6213 31.86 18 31.86C17.3787 31.86 16.875 31.3563 16.875 30.735V8.23499C16.875 7.61366 17.3787 7.10999 18 7.10999Z" fill="#2C2C2C"/>
<path fill-rule="evenodd" clip-rule="evenodd" d="M29.2289 3.3131C29.4802 3.52684 29.625 3.84013 29.625 4.17005V12C29.625 12.4147 29.3969 12.7957 29.0314 12.9916C28.6659 13.1875 28.2223 13.1664 27.877 12.9368L25.5 11.356L23.123 12.9368C22.7777 13.1664 22.3341 13.1875 21.9686 12.9916C21.6031 12.7957 21.375 12.4147 21.375 12V5.87998C21.375 5.41888 21.6564 5.00447 22.0849 4.83435C24.1128 4.02941 26.3817 3.37472 28.3194 3.05964C28.6451 3.00669 28.9776 3.09935 29.2289 3.3131ZM23.625 6.65426V9.90083L24.877 9.06821C25.2544 8.81724 25.7456 8.81724 26.123 9.06821L27.375 9.90083V5.53628C26.1669 5.8096 24.8676 6.19707 23.625 6.65426Z" fill="#2C2C2C"/>
</svg>
