<svg width="36" height="36" viewBox="0 0 36 36" fill="none" xmlns="http://www.w3.org/2000/svg">
<path fill-rule="evenodd" clip-rule="evenodd" d="M3.56023 10.2258C4.88835 8.64686 7.16537 7.875 10.4999 7.875H25.4999C28.8345 7.875 31.1115 8.64686 32.4396 10.2258C33.7548 11.7895 33.8799 13.8437 33.6692 15.7592L32.5436 27.7649C32.3784 29.307 31.9912 30.9977 30.6143 32.2556C29.2476 33.5042 27.1302 34.125 23.9999 34.125H11.9999C8.86965 34.125 6.75222 33.5042 5.3855 32.2556C4.0086 30.9977 3.62155 29.307 3.45633 27.7648L3.45474 27.75L2.3307 15.7592C2.11991 13.8438 2.245 11.7895 3.56023 10.2258ZM5.28212 11.6742C4.57453 12.5154 4.37536 13.7794 4.5681 15.5213L4.57017 15.54L5.6943 27.5324C5.84437 28.9264 6.15505 29.911 6.9031 30.5944C7.66263 31.2883 9.1002 31.875 11.9999 31.875H23.9999C26.8996 31.875 28.3372 31.2883 29.0968 30.5944C29.8448 29.911 30.1555 28.9264 30.3055 27.5324L31.4316 15.5212C31.6243 13.7794 31.4253 12.5154 30.7177 11.6742C30.0208 10.8456 28.5704 10.125 25.4999 10.125H10.4999C7.42948 10.125 5.979 10.8456 5.28212 11.6742Z" fill="#2C2C2C"/>
<path fill-rule="evenodd" clip-rule="evenodd" d="M13.1905 6.07556C13.1268 6.56365 13.125 7.11832 13.125 7.8V9C13.125 9.62132 12.6213 10.125 12 10.125C11.3787 10.125 10.875 9.62132 10.875 9L10.875 7.76101C10.875 7.12572 10.8749 6.43183 10.9595 5.78428C11.0471 5.11333 11.2348 4.40101 11.6745 3.76474C12.5996 2.42624 14.2943 1.875 16.8 1.875H19.2C21.7057 1.875 23.4004 2.42624 24.3255 3.76474C24.7652 4.40101 24.9529 5.11333 25.0405 5.78428C25.1251 6.43183 25.125 7.12573 25.125 7.76103L25.125 9C25.125 9.62132 24.6213 10.125 24 10.125C23.3787 10.125 22.875 9.62132 22.875 9V7.8C22.875 7.11832 22.8732 6.56365 22.8095 6.07556C22.7471 5.59761 22.6348 5.27586 22.4745 5.04401C22.1996 4.64626 21.4943 4.125 19.2 4.125H16.8C14.5057 4.125 13.8004 4.64626 13.5255 5.04401C13.3652 5.27586 13.2529 5.59761 13.1905 6.07556Z" fill="#2C2C2C"/>
<path fill-rule="evenodd" clip-rule="evenodd" d="M16.1262 19.1262C16.125 19.2333 16.125 19.3553 16.125 19.5V21.045C16.125 21.4673 16.1287 21.7779 16.1654 22.0414C16.2006 22.2948 16.2566 22.4181 16.3041 22.4851C16.357 22.5598 16.6209 22.875 18 22.875C19.3854 22.875 19.6461 22.5568 19.6979 22.4828C19.7456 22.4146 19.8015 22.2894 19.8362 22.033C19.8723 21.7664 19.875 21.4544 19.875 21.03V19.5C19.875 19.3553 19.875 19.2333 19.8738 19.1262C19.7667 19.125 19.6447 19.125 19.5 19.125H16.5C16.3553 19.125 16.2333 19.125 16.1262 19.1262ZM16.4507 16.875C16.4672 16.875 16.4836 16.875 16.5 16.875H19.5C19.5164 16.875 19.5329 16.875 19.5493 16.875C19.881 16.8749 20.2171 16.8749 20.4914 16.9053C20.771 16.9364 21.2355 17.0195 21.608 17.392C21.9806 17.7646 22.0636 18.229 22.0947 18.5086C22.1252 18.7829 22.1251 19.119 22.125 19.4507C22.125 19.4672 22.125 19.4836 22.125 19.5V21.0468C22.125 21.4364 22.125 21.8974 22.0659 22.3347C22.0045 22.7885 21.87 23.3035 21.5409 23.7735C20.8389 24.7758 19.5996 25.125 18 25.125C16.4092 25.125 15.173 24.7802 14.4684 23.7862C14.1371 23.3188 14 22.8055 13.9368 22.3516C13.8751 21.9077 13.875 21.4402 13.875 21.045V19.5C13.875 19.4836 13.875 19.4672 13.875 19.4507C13.8749 19.119 13.8749 18.7829 13.9053 18.5086C13.9364 18.229 14.0195 17.7646 14.392 17.392C14.7646 17.0195 15.229 16.9364 15.5086 16.9053C15.7829 16.8749 16.119 16.8749 16.4507 16.875Z" fill="#2C2C2C"/>
<path fill-rule="evenodd" clip-rule="evenodd" d="M33.3847 15.8383C33.7501 16.3408 33.6391 17.0444 33.1366 17.4098C29.5123 20.0456 25.3717 21.6134 21.1404 22.1462C20.524 22.2238 19.9613 21.787 19.8837 21.1705C19.8061 20.5541 20.2429 19.9914 20.8593 19.9138C24.7281 19.4266 28.5074 17.9944 31.8132 15.5902C32.3157 15.2247 33.0193 15.3358 33.3847 15.8383Z" fill="#2C2C2C"/>
<path fill-rule="evenodd" clip-rule="evenodd" d="M3.00167 16.2696C3.3526 15.7569 4.05273 15.6257 4.56546 15.9766C7.7888 18.1828 11.4237 19.5125 15.1252 19.927C15.7427 19.9961 16.1872 20.5527 16.1181 21.1702C16.0489 21.7877 15.4923 22.2322 14.8749 22.163C10.8064 21.7075 6.82128 20.2472 3.29462 17.8334C2.7819 17.4825 2.65074 16.7823 3.00167 16.2696Z" fill="#2C2C2C"/>
</svg>
