<svg width="36" height="36" viewBox="0 0 36 36" fill="none" xmlns="http://www.w3.org/2000/svg">
<path fill-rule="evenodd" clip-rule="evenodd" d="M10.6629 3.09881C11.4751 2.26362 12.6386 1.875 14.1751 1.875H21.8251C23.3616 1.875 24.525 2.26362 25.3372 3.09881C26.1075 3.89094 26.393 4.92472 26.5714 5.78562C26.5713 5.78524 26.5715 5.786 26.5714 5.78562L27.8012 11.6646C27.8706 11.9962 27.7868 12.3414 27.5732 12.6044C27.3596 12.8673 27.0388 13.02 26.7001 13.02H9.30006C8.96128 13.02 8.64054 12.8673 8.42691 12.6044C8.21329 12.3414 8.12953 11.9962 8.19889 11.6646L9.42847 5.78676C9.4284 5.78711 9.42854 5.7864 9.42847 5.78676C9.60691 4.92585 9.89256 3.89096 10.6629 3.09881ZM12.2759 4.66746C11.9854 4.96623 11.7982 5.4394 11.6317 6.24327L10.6847 10.77H25.3154L24.3685 6.24327C24.2019 5.4394 24.0147 4.96623 23.7242 4.66746C23.4752 4.41139 22.9886 4.125 21.8251 4.125H14.1751C13.0116 4.125 12.525 4.41139 12.2759 4.66746Z" fill="#2C2C2C"/>
<path fill-rule="evenodd" clip-rule="evenodd" d="M9.24513 13.4771C9.04636 13.7128 8.93766 14.1103 8.86036 14.9528L8.24511 21.5854C8.18953 22.176 8.66327 22.725 9.33006 22.725H11.3701C11.5682 22.725 11.6768 22.7047 11.7271 22.6908C11.7286 22.6877 11.7302 22.6843 11.7319 22.6807C11.7631 22.6145 11.7923 22.5317 11.8504 22.3615L11.8528 22.3545L12.0752 21.717C12.08 21.7026 12.0849 21.6877 12.09 21.6724C12.2112 21.306 12.4165 20.6855 12.9229 20.212C13.5015 19.671 14.2802 19.47 15.2101 19.47H20.7751C21.6778 19.47 22.4626 19.637 23.0501 20.1779C23.5495 20.6376 23.7575 21.2607 23.8843 21.6406C23.8929 21.6663 23.9011 21.691 23.909 21.7143L24.1374 22.3692C24.1945 22.5405 24.2239 22.6245 24.2542 22.6891C24.2546 22.6901 24.2551 22.691 24.2555 22.692C24.308 22.706 24.4168 22.725 24.6151 22.725H26.6551C27.3219 22.725 27.7956 22.176 27.74 21.5854L27.1249 14.9539C27.0476 14.1114 26.9388 13.7128 26.74 13.4771C26.5949 13.3051 26.2063 13.005 24.9301 13.005H11.0551C9.77885 13.005 9.39017 13.3051 9.24513 13.4771ZM7.52499 12.0267C8.28744 11.1224 9.48126 10.755 11.0551 10.755H24.9301C26.5038 10.755 27.6977 11.1224 28.4601 12.0267C29.1687 12.867 29.2926 13.9543 29.3653 14.7468C29.3653 14.7466 29.3653 14.7469 29.3653 14.7468L29.9801 21.3746C29.9801 21.3745 29.9801 21.3747 29.9801 21.3746C30.1643 23.3339 28.5982 24.975 26.6551 24.975H24.6151C23.8869 24.975 23.2171 24.822 22.7089 24.3405C22.2833 23.9373 22.1101 23.4083 22.0203 23.134C22.015 23.1177 22.0099 23.1022 22.0051 23.0878L21.7796 22.4411C21.6987 22.2027 21.6511 22.0651 21.5987 21.9538C21.553 21.8566 21.5276 21.8345 21.5263 21.8333C21.5248 21.832 21.5202 21.8277 21.5072 21.8206C21.4932 21.8131 21.4637 21.7992 21.4108 21.784C21.2995 21.7521 21.104 21.72 20.7751 21.72H15.2101C14.8963 21.72 14.707 21.7545 14.5982 21.7881C14.4995 21.8185 14.4682 21.8474 14.4597 21.8554C14.4133 21.8988 14.3582 21.983 14.2073 22.4357L14.2024 22.4505L13.9786 23.0918C13.9731 23.108 13.9672 23.1256 13.9609 23.1444C13.8719 23.4106 13.6977 23.932 13.28 24.3313C12.7749 24.8143 12.1068 24.975 11.3701 24.975H9.33006C7.38713 24.975 5.82102 23.3345 6.00494 21.3754C6.00491 21.3757 6.00496 21.3751 6.00494 21.3754L6.61977 14.7473C6.61975 14.7474 6.61979 14.7471 6.61977 14.7473C6.69248 13.9548 6.81644 12.867 7.52499 12.0267Z" fill="#2C2C2C"/>
<path fill-rule="evenodd" clip-rule="evenodd" d="M7.08008 8.625C7.08008 8.00368 7.58376 7.5 8.20508 7.5H9.30007C9.92139 7.5 10.4251 8.00368 10.4251 8.625C10.4251 9.24632 9.92139 9.75 9.30007 9.75H8.20508C7.58376 9.75 7.08008 9.24632 7.08008 8.625Z" fill="#2C2C2C"/>
<path fill-rule="evenodd" clip-rule="evenodd" d="M25.5752 8.625C25.5752 8.00368 26.0789 7.5 26.7002 7.5H27.7952C28.4165 7.5 28.9202 8.00368 28.9202 8.625C28.9202 9.24632 28.4165 9.75 27.7952 9.75H26.7002C26.0789 9.75 25.5752 9.24632 25.5752 8.625Z" fill="#2C2C2C"/>
<path fill-rule="evenodd" clip-rule="evenodd" d="M10.3501 16.245C10.3501 15.6237 10.8538 15.12 11.4751 15.12H14.7301C15.3514 15.12 15.8551 15.6237 15.8551 16.245C15.8551 16.8663 15.3514 17.37 14.7301 17.37H11.4751C10.8538 17.37 10.3501 16.8663 10.3501 16.245Z" fill="#2C2C2C"/>
<path fill-rule="evenodd" clip-rule="evenodd" d="M20.145 16.245C20.145 15.6237 20.6487 15.12 21.27 15.12H24.525C25.1464 15.12 25.65 15.6237 25.65 16.245C25.65 16.8663 25.1464 17.37 24.525 17.37H21.27C20.6487 17.37 20.145 16.8663 20.145 16.245Z" fill="#2C2C2C"/>
<path fill-rule="evenodd" clip-rule="evenodd" d="M18 24.375C18.6213 24.375 19.125 24.8787 19.125 25.5V27C19.125 27.6213 18.6213 28.125 18 28.125C17.3787 28.125 16.875 27.6213 16.875 27V25.5C16.875 24.8787 17.3787 24.375 18 24.375Z" fill="#2C2C2C"/>
<path fill-rule="evenodd" clip-rule="evenodd" d="M18 30.375C18.6213 30.375 19.125 30.8787 19.125 31.5V33C19.125 33.6213 18.6213 34.125 18 34.125C17.3787 34.125 16.875 33.6213 16.875 33V31.5C16.875 30.8787 17.3787 30.375 18 30.375Z" fill="#2C2C2C"/>
<path fill-rule="evenodd" clip-rule="evenodd" d="M4.77287 25.9086C5.37564 26.0593 5.74212 26.6701 5.59143 27.2728L4.09143 33.2728C3.94074 33.8756 3.32994 34.2421 2.72717 34.0914C2.1244 33.9407 1.75792 33.3299 1.90861 32.7271L3.40861 26.7271C3.5593 26.1244 4.17011 25.7579 4.77287 25.9086Z" fill="#2C2C2C"/>
<path fill-rule="evenodd" clip-rule="evenodd" d="M31.2272 25.9086C31.8299 25.7579 32.4407 26.1244 32.5914 26.7271L34.0914 32.7271C34.2421 33.3299 33.8756 33.9407 33.2729 34.0914C32.6701 34.2421 32.0593 33.8756 31.9086 33.2728L30.4086 27.2728C30.2579 26.6701 30.6244 26.0593 31.2272 25.9086Z" fill="#2C2C2C"/>
</svg>
