<svg width="16" height="12" viewBox="0 0 16 12" fill="none" xmlns="http://www.w3.org/2000/svg">
<path d="M15.876 4.84329C15.7259 5.34019 15.3985 5.538 14.933 5.50821C14.8531 5.50225 14.772 5.50821 14.668 5.50821C14.7019 5.5654 14.7216 5.60115 14.7435 5.63571C14.966 5.98558 15.0831 6.40194 15.0787 6.82732C15.0787 8.27155 15.0787 9.71579 15.0787 11.1588C15.0787 11.4543 14.9374 11.6188 14.6647 11.6212C13.9433 11.6259 13.2209 11.6259 12.4973 11.6212C12.2147 11.6212 12.0702 11.4484 12.068 11.135C12.068 11.0158 12.068 10.8967 12.068 10.7704H3.93835C3.93835 10.9062 3.93835 11.0385 3.93835 11.1707C3.93178 11.4424 3.78831 11.6176 3.53861 11.62C2.80191 11.6271 2.06411 11.6271 1.32522 11.62C1.06894 11.62 0.928757 11.4508 0.928757 11.1743C0.928757 9.7134 0.928757 8.25368 0.928757 6.79276C0.932824 6.3251 1.08004 5.87226 1.34712 5.50582C1.17627 5.50582 1.03171 5.50582 0.887141 5.50582C0.729734 5.504 0.576657 5.4495 0.448709 5.34973C0.32076 5.24995 0.224142 5.10975 0.171979 4.94815C0.119812 4.79506 0.111564 4.62836 0.148327 4.47006C0.18509 4.31177 0.265131 4.16934 0.377874 4.06159C0.51211 3.92054 0.691765 3.84226 0.878379 3.84352C1.21132 3.84352 1.54426 3.84352 1.8772 3.84352C1.98931 3.84691 2.09952 3.87593 2.20065 3.92869C2.30179 3.98145 2.39159 4.05678 2.46422 4.14977C2.49817 4.00082 2.52336 3.86974 2.55731 3.74105C2.77635 2.92122 2.99539 2.09901 3.22757 1.28275C3.33709 0.874031 3.62184 0.654776 4.00516 0.602345C4.406 0.548722 4.80903 0.483183 5.20987 0.471267C6.41459 0.424794 7.62587 0.359257 8.83387 0.379514C9.88636 0.397388 10.9377 0.515357 11.9891 0.602345C12.1735 0.608805 12.351 0.680285 12.4948 0.806015C12.6386 0.931745 12.7409 1.10492 12.7864 1.29944C13.0339 2.19195 13.2661 3.08685 13.5049 3.98652C13.5169 4.03418 13.5268 4.08304 13.5443 4.15692C13.7633 3.86974 14.0437 3.82684 14.346 3.83995C14.5815 3.84948 14.818 3.83995 15.0535 3.83995C15.4554 3.83995 15.6997 4.02346 15.8475 4.43576C15.8554 4.44905 15.865 4.46109 15.876 4.47151V4.84329ZM12.7974 4.32732C12.614 3.38241 12.3677 2.45328 12.0603 1.54729C12.0439 1.51541 12.0209 1.48809 11.9931 1.46742C11.9654 1.44676 11.9337 1.43331 11.9004 1.42813C11.2126 1.35663 10.526 1.25535 9.83707 1.23866C8.6141 1.20768 7.39041 1.20768 6.16598 1.23866C5.48258 1.25654 4.80137 1.35782 4.11796 1.41979C4.06941 1.42047 4.02263 1.4397 3.98579 1.47412C3.94895 1.50854 3.92441 1.55595 3.91645 1.60806C3.73027 2.28252 3.5397 2.95697 3.3579 3.6338C3.29657 3.86378 3.25605 4.09972 3.20676 4.33089C6.38135 3.75118 9.62244 3.74997 12.7974 4.32732ZM8.00043 8.04991H7.69378C7.13523 8.04991 6.57668 8.04991 6.01813 8.04991C5.96061 8.0463 5.90305 8.05632 5.84945 8.0793C5.79584 8.10228 5.74746 8.13767 5.70767 8.183C5.66788 8.22834 5.63762 8.28255 5.61899 8.34187C5.60036 8.40119 5.59379 8.46421 5.59976 8.52656C5.614 8.7768 5.79252 8.9329 6.07289 8.9329H9.93016C9.97629 8.93372 10.0224 8.93093 10.0682 8.92456C10.1693 8.9049 10.2599 8.84426 10.3216 8.75487C10.3833 8.66547 10.4116 8.55395 10.4008 8.44277C10.3899 8.33158 10.3408 8.22899 10.2632 8.15565C10.1857 8.08232 10.0854 8.04368 9.98274 8.04753C9.32343 8.04634 8.66302 8.04991 8.00043 8.04991ZM2.39851 7.03466C2.39734 7.15718 2.41862 7.27873 2.46111 7.3922C2.5036 7.50568 2.56645 7.6088 2.64598 7.69555C2.72551 7.78231 2.82012 7.85095 2.92431 7.89747C3.02849 7.94399 3.14015 7.96746 3.25276 7.9665C3.36702 7.96807 3.48044 7.94501 3.58647 7.89863C3.69249 7.85225 3.78902 7.78348 3.87048 7.69629C3.95194 7.60909 4.01672 7.5052 4.06108 7.39062C4.10544 7.27604 4.12849 7.15303 4.12892 7.0287C4.12525 6.78123 4.03326 6.54501 3.87241 6.36999C3.71156 6.19498 3.49445 6.09489 3.267 6.09091C3.15277 6.08963 3.03945 6.11317 2.93368 6.16015C2.82791 6.20712 2.73183 6.27659 2.65105 6.36448C2.57027 6.45237 2.50642 6.55692 2.46324 6.672C2.42007 6.78707 2.39843 6.91037 2.3996 7.03466H2.39851ZM13.6045 7.02036C13.6034 6.773 13.5121 6.53624 13.3507 6.362C13.1894 6.18776 12.9711 6.09027 12.7437 6.09091C12.5134 6.09435 12.2937 6.1963 12.132 6.37471C11.9702 6.55311 11.8796 6.79362 11.8796 7.04419C11.8836 7.29158 11.977 7.52729 12.1396 7.70034C12.3021 7.87339 12.5207 7.96986 12.7481 7.96888C12.8623 7.97038 12.9756 7.94675 13.0812 7.89941C13.1868 7.85208 13.2825 7.78201 13.3626 7.69342C13.4427 7.60483 13.5055 7.49955 13.5473 7.38389C13.589 7.26823 13.6089 7.14458 13.6056 7.02036H13.6045Z" fill="#2C2C2C"/>
</svg>
