<svg width="14" height="14" viewBox="0 0 14 14" fill="none" xmlns="http://www.w3.org/2000/svg">
<path d="M13.4166 8.5625V12.75C13.4166 13.3719 12.8941 13.875 12.2499 13.875C11.6057 13.875 11.0833 13.3719 11.0833 12.75V8.5625C11.0833 6.785 9.84731 5.29648 8.16659 4.80781V12.75C8.16659 13.3719 7.64414 13.875 6.99992 13.875C6.3557 13.875 5.83325 13.3719 5.83325 12.75V4.80781C4.15252 5.29648 2.91659 6.78359 2.91659 8.5625V12.75C2.91659 13.3719 2.39414 13.875 1.74992 13.875C1.1057 13.875 0.583252 13.3719 0.583252 12.75V8.5625C0.583252 5.5359 2.85096 3.01484 5.83325 2.48398V1.25C5.83325 0.628086 6.3557 0.125 6.99992 0.125C7.64414 0.125 8.16659 0.628086 8.16659 1.25V2.48258C11.1489 3.01484 13.4166 5.53555 13.4166 8.5625Z" fill="#2C2C2C"/>
</svg>
