<svg width="14" height="14" viewBox="0 0 14 14" fill="none" xmlns="http://www.w3.org/2000/svg">
<path d="M12.3999 5.14667C11.1933 5.14667 10.6999 4.29333 11.2999 3.24667C11.6466 2.64 11.4399 1.86667 10.8333 1.52L9.67992 0.859998C9.15325 0.546665 8.47325 0.733332 8.15992 1.26L8.08659 1.38666C7.48659 2.43333 6.49992 2.43333 5.89325 1.38666L5.81992 1.26C5.51992 0.733332 4.83992 0.546665 4.31325 0.859998L3.15992 1.52C2.55325 1.86667 2.34659 2.64667 2.69325 3.25333C3.29992 4.29333 2.80659 5.14667 1.59992 5.14667C0.906585 5.14667 0.333252 5.71333 0.333252 6.41333V7.58667C0.333252 8.28 0.899919 8.85333 1.59992 8.85333C2.80659 8.85333 3.29992 9.70666 2.69325 10.7533C2.34659 11.36 2.55325 12.1333 3.15992 12.48L4.31325 13.14C4.83992 13.4533 5.51992 13.2667 5.83325 12.74L5.90659 12.6133C6.50659 11.5667 7.49325 11.5667 8.09992 12.6133L8.17325 12.74C8.48659 13.2667 9.16659 13.4533 9.69325 13.14L10.8466 12.48C11.4533 12.1333 11.6599 11.3533 11.3133 10.7533C10.7066 9.70666 11.1999 8.85333 12.4066 8.85333C13.0999 8.85333 13.6733 8.28666 13.6733 7.58667V6.41333C13.6666 5.72 13.0999 5.14667 12.3999 5.14667ZM6.99992 9.16667C5.80659 9.16667 4.83325 8.19333 4.83325 7C4.83325 5.80666 5.80659 4.83333 6.99992 4.83333C8.19325 4.83333 9.16659 5.80666 9.16659 7C9.16659 8.19333 8.19325 9.16667 6.99992 9.16667Z" fill="#2C2C2C"/>
</svg>
