<svg width="16" height="14" viewBox="0 0 16 14" fill="none" xmlns="http://www.w3.org/2000/svg">
<path d="M14.6666 12.3333V13.6666H1.33329V12.3333H1.99996V7.82792C1.58954 7.55398 1.2531 7.18295 1.02051 6.74776C0.787911 6.31258 0.666354 5.8267 0.666626 5.33325C0.666626 4.78192 0.81596 4.25059 1.08863 3.79792L2.89663 0.666585C2.95514 0.565242 3.03929 0.481085 3.14064 0.422573C3.24198 0.364061 3.35694 0.333255 3.47396 0.333252H12.5266C12.6436 0.333255 12.7586 0.364061 12.86 0.422573C12.9613 0.481085 13.0454 0.565242 13.104 0.666585L14.9053 3.78792C15.303 4.4485 15.4308 5.23694 15.2622 5.98935C15.0936 6.74175 14.6415 7.40023 14 7.82792V12.3333H14.6666ZM3.85929 1.66659L2.23729 4.47525C2.07968 4.86468 2.07495 5.29927 2.22405 5.69204C2.37315 6.08481 2.66508 6.40678 3.04141 6.59351C3.41775 6.78025 3.85072 6.81797 4.25368 6.69913C4.65664 6.58029 4.99985 6.31365 5.21463 5.95259C5.43796 5.39459 6.22796 5.39459 6.45196 5.95259C6.57549 6.2622 6.78903 6.52765 7.06498 6.71465C7.34093 6.90166 7.66662 7.00162 7.99996 7.00162C8.33331 7.00162 8.65899 6.90166 8.93494 6.71465C9.21089 6.52765 9.42443 6.2622 9.54796 5.95259C9.77129 5.39459 10.5613 5.39459 10.7853 5.95259C10.8718 6.16555 11.0014 6.35832 11.1661 6.51877C11.3307 6.67922 11.5267 6.80389 11.7418 6.88493C11.9569 6.96598 12.1864 7.00165 12.416 6.98971C12.6456 6.97777 12.8702 6.91847 13.0757 6.81554C13.2812 6.71261 13.4633 6.56827 13.6103 6.39161C13.7574 6.21494 13.8663 6.00976 13.9303 5.78897C13.9942 5.56817 14.0118 5.33654 13.9819 5.10862C13.952 4.8807 13.8753 4.66143 13.7566 4.46459L12.14 1.66659H3.85996H3.85929Z" fill="#2C2C2C"/>
</svg>
