<svg width="14" height="10" viewBox="0 0 14 10" fill="none" xmlns="http://www.w3.org/2000/svg">
<path d="M14.001 3.97189C13.8676 4.41358 13.5765 4.58941 13.1628 4.56293C13.0917 4.55763 13.0197 4.56293 12.9272 4.56293C12.9574 4.61377 12.9749 4.64555 12.9943 4.67627C13.192 4.98726 13.2961 5.35736 13.2922 5.73548C13.2922 7.01924 13.2922 8.303 13.2922 9.5857C13.2922 9.84839 13.1667 9.99456 12.9243 9.99668C12.283 10.0009 11.6408 10.0009 10.9977 9.99668C10.7465 9.99668 10.618 9.84309 10.6161 9.56452C10.6161 9.4586 10.6161 9.35268 10.6161 9.2404H3.38973C3.38973 9.36115 3.38973 9.47872 3.38973 9.5963C3.38389 9.8378 3.25636 9.9935 3.0344 9.99562C2.37955 10.002 1.72374 10.002 1.06694 9.99562C0.839142 9.99562 0.714532 9.84521 0.714532 9.59947C0.714532 8.30088 0.714532 7.00335 0.714532 5.70476C0.718148 5.28906 0.849004 4.88654 1.08641 4.56081C0.934545 4.56081 0.806043 4.56081 0.67754 4.56081C0.537623 4.55919 0.401555 4.51075 0.287822 4.42206C0.17409 4.33337 0.0882075 4.20875 0.0418402 4.0651C-0.00453021 3.92903 -0.0118614 3.78084 0.0208165 3.64014C0.0534945 3.49943 0.124642 3.37283 0.224858 3.27705C0.344179 3.15167 0.503872 3.08209 0.669752 3.08321C0.965698 3.08321 1.26164 3.08321 1.55759 3.08321C1.65725 3.08623 1.75521 3.11202 1.84511 3.15892C1.93501 3.20582 2.01483 3.27277 2.07939 3.35543C2.10957 3.22303 2.13196 3.10652 2.16214 2.99212C2.35684 2.26339 2.55154 1.53253 2.75792 0.806974C2.85527 0.443665 3.10838 0.248771 3.44911 0.202166C3.80542 0.154501 4.16367 0.0962441 4.51997 0.085652C5.59083 0.0443428 6.66752 -0.0139126 7.7413 0.00409399C8.67684 0.0199821 9.61141 0.124843 10.546 0.202166C10.7099 0.207908 10.8676 0.271446 10.9954 0.383206C11.1233 0.494965 11.2143 0.648895 11.2547 0.821804C11.4747 1.61515 11.6811 2.41062 11.8933 3.21032C11.904 3.25269 11.9128 3.29612 11.9284 3.36179C12.1231 3.10652 12.3723 3.06839 12.641 3.08004C12.8503 3.08851 13.0605 3.08004 13.2698 3.08004C13.6271 3.08004 13.8442 3.24316 13.9756 3.60964C13.9827 3.62146 13.9912 3.63216 14.001 3.64142V3.97189ZM11.2644 3.51325C11.1014 2.67334 10.8825 1.84744 10.6093 1.04212C10.5946 1.01378 10.5742 0.989491 10.5495 0.971124C10.5249 0.952757 10.4967 0.940806 10.4671 0.936197C9.85576 0.872645 9.24537 0.782612 8.63303 0.767783C7.54595 0.740244 6.45822 0.740244 5.36984 0.767783C4.76237 0.783671 4.15685 0.873703 3.54938 0.928782C3.50623 0.929389 3.46464 0.946485 3.4319 0.977078C3.39915 1.00767 3.37733 1.04981 3.37026 1.09614C3.20476 1.69565 3.03537 2.29516 2.87377 2.8968C2.81925 3.10122 2.78323 3.31094 2.73943 3.51643C5.56128 3.00113 8.44225 3.00006 11.2644 3.51325ZM7.00047 6.82223H6.72788C6.2314 6.82223 5.73491 6.82223 5.23842 6.82223C5.18729 6.81901 5.13613 6.82792 5.08848 6.84835C5.04083 6.86878 4.99783 6.90023 4.96246 6.94053C4.92708 6.98083 4.90019 7.02901 4.88363 7.08174C4.86706 7.13447 4.86123 7.19049 4.86654 7.24591C4.87919 7.46834 5.03788 7.6071 5.28709 7.6071H8.71578C8.75678 7.60783 8.79778 7.60535 8.83845 7.59969C8.92837 7.58221 9.00886 7.52831 9.06372 7.44885C9.11858 7.36939 9.14373 7.27026 9.1341 7.17143C9.12447 7.0726 9.08079 6.9814 9.01184 6.91622C8.94289 6.85103 8.8538 6.81669 8.76251 6.82011C8.17646 6.81905 7.58944 6.82223 7.00047 6.82223ZM2.02098 5.91978C2.01994 6.02869 2.03886 6.13673 2.07663 6.2376C2.1144 6.33846 2.17026 6.43013 2.24095 6.50724C2.31164 6.58435 2.39575 6.64537 2.48835 6.68672C2.58096 6.72807 2.68021 6.74893 2.78031 6.74808C2.88188 6.74948 2.9827 6.72898 3.07694 6.68775C3.17118 6.64652 3.25699 6.58539 3.3294 6.50789C3.40181 6.43039 3.45939 6.33804 3.49882 6.23619C3.53825 6.13434 3.55874 6.025 3.55912 5.91448C3.55586 5.69451 3.47409 5.48453 3.33111 5.32896C3.18813 5.1734 2.99515 5.08443 2.79297 5.08089C2.69143 5.07975 2.5907 5.10068 2.49669 5.14243C2.40267 5.18419 2.31726 5.24594 2.24546 5.32407C2.17365 5.40219 2.1169 5.49512 2.07852 5.59741C2.04014 5.6997 2.02091 5.8093 2.02195 5.91978H2.02098ZM11.9819 5.90707C11.9809 5.68719 11.8997 5.47674 11.7563 5.32186C11.6128 5.16698 11.4188 5.08032 11.2167 5.08089C11.012 5.08395 10.8167 5.17457 10.6729 5.33316C10.5292 5.49174 10.4486 5.70552 10.4486 5.92825C10.4522 6.14815 10.5352 6.35768 10.6797 6.5115C10.8242 6.66532 11.0185 6.75107 11.2206 6.7502C11.3221 6.75153 11.4228 6.73052 11.5167 6.68845C11.6106 6.64637 11.6957 6.58409 11.7669 6.50535C11.838 6.4266 11.8939 6.33301 11.931 6.2302C11.9681 6.12739 11.9858 6.01748 11.9829 5.90707H11.9819Z" fill="white"/>
</svg>
