<svg width="12" height="10" viewBox="0 0 12 10" fill="none" xmlns="http://www.w3.org/2000/svg">
<g clip-path="url(#clip0_625_13411)">
<path d="M5.97225 7.06359H1.57936C1.05688 7.06359 1.0438 7.06359 0.981177 6.57599C0.808265 5.24378 0.647505 3.91063 0.481136 2.57842C0.454965 2.3614 0.402624 2.14531 0.397016 1.92829C0.3858 1.49611 0.704518 1.29412 1.07464 1.50363C1.34476 1.65677 1.59431 1.84749 1.85041 2.02411C2.05884 2.16692 2.09996 2.36609 2.04575 2.60191C2.00821 2.75266 1.98351 2.90635 1.97191 3.06132C1.94387 3.67482 2.15885 4.16712 2.72805 4.44897C3.31315 4.73739 3.88796 4.68854 4.38707 4.27234C4.88618 3.85614 4.97871 3.29808 4.81795 2.69492C4.75258 2.4714 4.65564 2.25846 4.53007 2.06263C4.37398 1.80991 4.3852 1.59946 4.59082 1.38807C4.9273 1.03952 5.2535 0.681568 5.59184 0.336771C5.89654 0.0267361 6.07786 0.023918 6.38069 0.328316C6.71063 0.660899 7.03495 1.001 7.349 1.3458C7.62285 1.64362 7.63687 1.7432 7.4219 2.08706C7.19983 2.42957 7.08971 2.83324 7.10692 3.24171C7.13964 4.02901 7.72754 4.60586 8.52947 4.62277C9.31645 4.63874 9.96137 4.07504 10.0118 3.30277C10.018 3.08538 9.99603 2.86809 9.94641 2.6564C9.88659 2.36515 9.93239 2.13592 10.2016 1.97056C10.4147 1.84091 10.6156 1.68871 10.8203 1.54967C10.9979 1.42659 11.1886 1.36177 11.3858 1.48296C11.6054 1.61637 11.6138 1.83434 11.5839 2.06357C11.4905 2.76068 11.4045 3.45779 11.3129 4.15396C11.2017 4.99012 11.096 5.82627 10.9717 6.66055C10.9128 7.05796 10.896 7.06265 10.4997 7.06359C8.99493 7.06359 7.48577 7.06359 5.97225 7.06359Z" fill="white"/>
<path d="M6.04698 7.90351C7.46081 7.90351 8.87494 7.90351 10.2894 7.90351C10.7726 7.90351 10.8661 8.02 10.7483 8.49351C10.667 8.81576 10.481 9.05721 10.1408 9.13519C9.94397 9.17583 9.74352 9.19598 9.5426 9.19532C7.19474 9.1997 4.8475 9.1997 2.50089 9.19532C2.28441 9.19504 2.06846 9.17396 1.85598 9.13237C1.55315 9.07412 1.37276 8.86086 1.27555 8.57995C1.0961 8.06698 1.21387 7.90257 1.7569 7.90257C3.18693 7.90194 4.61695 7.90225 6.04698 7.90351Z" fill="white"/>
</g>
<defs>
<clipPath id="clip0_625_13411">
<rect width="11.2" height="9.1" fill="white" transform="translate(0.399902 0.100006)"/>
</clipPath>
</defs>
</svg>
