<svg width="14" height="14" viewBox="0 0 14 14" fill="none" xmlns="http://www.w3.org/2000/svg">
<path d="M12.9883 4.66261L12.821 3.21739C12.5788 1.64174 11.7888 1 10.0992 1H8.73831H7.88487H6.13184H5.27839H3.89442C2.19906 1 1.41481 1.64174 1.16685 3.23304L1.01115 4.66783C0.953486 5.22609 1.12072 5.7687 1.48401 6.1913C1.92226 6.70783 2.59695 7 3.3466 7C4.07318 7 4.77093 6.6713 5.20919 6.14435C5.60132 6.6713 6.27024 7 7.01412 7C7.758 7 8.40962 6.68696 8.80751 6.16522C9.25154 6.68174 9.93775 7 10.6528 7C11.4198 7 12.1117 6.69217 12.5442 6.14957C12.8902 5.73217 13.0459 5.20522 12.9883 4.66261Z" fill="white"/>
<path d="M6.62078 9.71831C5.87995 9.79415 5.31995 10.4241 5.31995 11.1708V12.7691C5.31995 12.9266 5.44828 13.055 5.60578 13.055H8.38828C8.54578 13.055 8.67411 12.9266 8.67411 12.7691V11.375C8.67995 10.1558 7.96245 9.57831 6.62078 9.71831Z" fill="white"/>
<path d="M12 8.11429V9.93878C12 11.6286 10.8047 13 9.33191 13C9.18783 13 9.07044 12.8653 9.07044 12.7V11.2367C9.07044 10.4531 8.86233 9.84082 8.45678 9.42449C8.09925 9.05102 7.61366 8.86735 7.01067 8.86735C6.87727 8.86735 6.74386 8.87347 6.59979 8.89184C5.64995 9.00204 4.92956 9.92041 4.92956 11.0224V12.7C4.92956 12.8653 4.81217 13 4.66809 13C3.1953 13 2 11.6286 2 9.93878V8.12653C2 7.69796 2.3682 7.4102 2.71505 7.55102C2.85912 7.60612 3.0032 7.64898 3.15261 7.67347C3.21665 7.68571 3.28602 7.69796 3.35005 7.69796C3.43543 7.7102 3.52081 7.71633 3.60619 7.71633C4.22519 7.71633 4.83351 7.45306 5.31377 7C5.77268 7.45306 6.37033 7.71633 7 7.71633C7.635 7.71633 8.22198 7.46531 8.6809 7.01225C9.16115 7.45918 9.7588 7.71633 10.3671 7.71633C10.4632 7.71633 10.5592 7.7102 10.6499 7.69796C10.714 7.69184 10.7727 7.68571 10.8314 7.67347C10.9968 7.64898 11.1462 7.59388 11.2956 7.53878C11.6425 7.40408 12 7.69796 12 8.11429Z" fill="white"/>
</svg>
