<svg width="14" height="14" viewBox="0 0 14 14" fill="none" xmlns="http://www.w3.org/2000/svg">
<path d="M12.4 5.14679C11.1934 5.14679 10.7 4.29345 11.3 3.24679C11.6467 2.64012 11.44 1.86679 10.8334 1.52012L9.68004 0.86012C9.15337 0.546787 8.47337 0.733454 8.16004 1.26012L8.08671 1.38679C7.48671 2.43345 6.50004 2.43345 5.89337 1.38679L5.82004 1.26012C5.52004 0.733454 4.84004 0.546787 4.31337 0.86012L3.16004 1.52012C2.55337 1.86679 2.34671 2.64679 2.69337 3.25345C3.30004 4.29345 2.80671 5.14679 1.60004 5.14679C0.906707 5.14679 0.333374 5.71345 0.333374 6.41345V7.58679C0.333374 8.28012 0.900041 8.85345 1.60004 8.85345C2.80671 8.85345 3.30004 9.70679 2.69337 10.7535C2.34671 11.3601 2.55337 12.1335 3.16004 12.4801L4.31337 13.1401C4.84004 13.4535 5.52004 13.2668 5.83337 12.7401L5.90671 12.6135C6.50671 11.5668 7.49337 11.5668 8.10004 12.6135L8.17337 12.7401C8.48671 13.2668 9.16671 13.4535 9.69337 13.1401L10.8467 12.4801C11.4534 12.1335 11.66 11.3535 11.3134 10.7535C10.7067 9.70679 11.2 8.85345 12.4067 8.85345C13.1 8.85345 13.6734 8.28679 13.6734 7.58679V6.41345C13.6667 5.72012 13.1 5.14679 12.4 5.14679ZM7.00004 9.16679C5.80671 9.16679 4.83337 8.19345 4.83337 7.00012C4.83337 5.80679 5.80671 4.83345 7.00004 4.83345C8.19337 4.83345 9.16671 5.80679 9.16671 7.00012C9.16671 8.19345 8.19337 9.16679 7.00004 9.16679Z" fill="white"/>
</svg>
