<svg width="16" height="12" viewBox="0 0 16 12" fill="none" xmlns="http://www.w3.org/2000/svg">
<path d="M7.9887 5.9397C9.16007 5.9397 10.3314 5.9397 11.5028 5.9397C11.5914 5.94587 11.6453 6.03665 11.6048 6.11573C10.4392 7.99393 9.27371 9.87115 8.10817 11.7474C7.98943 11.9381 7.98798 11.9374 7.86851 11.7474C6.72726 9.90797 5.586 8.0693 4.44475 6.23137C4.4198 6.18605 4.39257 6.14204 4.36316 6.09953C4.25462 5.95738 4.3231 5.93896 4.46005 5.93896C5.63578 5.94142 6.812 5.94166 7.9887 5.9397Z" fill="white"/>
<path d="M7.99675 5.18012C6.81859 5.18012 5.64067 5.18012 4.46299 5.18012C4.21532 5.18012 4.21532 5.18012 4.32968 4.96357C4.71358 4.24765 5.10039 3.53394 5.47846 2.8158C5.49954 2.7594 5.5381 2.71141 5.5884 2.67902C5.63869 2.64662 5.698 2.63156 5.75746 2.63609C7.24255 2.6405 8.72788 2.6405 10.2135 2.63609C10.2661 2.62965 10.3193 2.6405 10.3654 2.66702C10.4114 2.69355 10.4478 2.73435 10.4691 2.78339C10.8654 3.52927 11.2668 4.2722 11.6733 5.01219C11.7541 5.1595 11.7308 5.18749 11.5691 5.18675C10.3781 5.18159 9.18705 5.18675 7.99966 5.18675L7.99675 5.18012Z" fill="white"/>
<path d="M12.589 1.03056C12.5656 1.04511 12.5413 1.05791 12.5161 1.06886C11.8969 1.32665 11.2777 1.58444 10.6564 1.83708C10.5721 1.86643 10.4832 1.87966 10.3941 1.87611C9.58844 1.87611 8.78204 1.87611 7.97563 1.87611C7.21439 1.87611 6.45242 1.88201 5.69118 1.87169C5.52079 1.8686 5.35221 1.83571 5.19291 1.77447C4.61015 1.54688 4.03248 1.30234 3.45408 1.06223C3.43676 1.05492 3.42037 1.04552 3.40527 1.03424C4.51326 0.518656 5.86164 0.186472 7.32949 0.108398C7.77822 0.108398 8.22719 0.108398 8.67641 0.108398C10.1428 0.188682 11.4832 0.518657 12.589 1.03056Z" fill="white"/>
<path d="M15.3636 3.58244C15.3514 3.59173 15.3385 3.6001 15.325 3.60749C14.4407 4.07004 13.5541 4.52964 12.6705 4.99293C12.5795 5.04154 12.5409 5.02534 12.4935 4.93769C12.072 4.14713 11.6473 3.35878 11.2194 2.57264C11.1699 2.48204 11.1808 2.44374 11.2777 2.40397C12.0062 2.10935 12.7346 1.8 13.4675 1.50391C13.6059 1.59082 13.737 1.68141 13.8637 1.77348C14.329 2.29397 14.7923 2.81668 15.2536 3.34159C15.2944 3.42335 15.3316 3.50216 15.3636 3.58244Z" fill="white"/>
<path d="M4.73831 2.59617C4.31945 3.36512 3.90787 4.13776 3.49337 4.90893C3.46788 4.95606 3.43509 4.99878 3.40741 5.0415C3.35132 5.01499 3.31709 4.99879 3.28285 4.98111C2.42108 4.53182 1.56004 4.08105 0.696087 3.63544C0.672776 3.62291 0.652379 3.61186 0.636353 3.60155C0.684306 3.48305 0.739032 3.36746 0.800256 3.25537C1.21694 2.79135 1.62973 2.32487 2.03864 1.85593C2.19356 1.73563 2.35795 1.62073 2.53181 1.51123L2.55876 1.52228C3.25662 1.82132 3.95959 2.11152 4.66328 2.39509C4.78857 2.44075 4.80023 2.48274 4.73831 2.59617Z" fill="white"/>
<path d="M6.9929 11.605L0.704834 4.48259L0.728144 4.45312C1.07343 4.64242 1.41872 4.83245 1.76474 5.02027C2.23169 5.27438 2.70009 5.52406 3.16484 5.78259C3.24894 5.82609 3.32179 5.8889 3.37755 5.966C4.57174 7.7946 5.76326 9.62517 6.95211 11.4577C6.97833 11.4982 7.00019 11.5409 7.02495 11.5829L6.9929 11.605Z" fill="white"/>
<path d="M15.2609 4.49282L8.97285 11.5909L8.9408 11.5666C9.0355 11.4252 9.12728 11.2823 9.22489 11.1424C10.4026 9.45027 11.5285 7.7238 12.6028 5.96296C12.6383 5.90228 12.6884 5.85163 12.7485 5.81565C13.557 5.37373 14.3673 4.93327 15.1793 4.49429C15.2002 4.48425 15.2216 4.4754 15.2434 4.46777L15.2609 4.49282Z" fill="white"/>
</svg>
