<svg width="14" height="14" viewBox="0 0 14 14" fill="none" xmlns="http://www.w3.org/2000/svg">
<path d="M9.21681 1.28917C8.97764 1.05 8.56348 1.21333 8.56348 1.54583V3.58167C8.56348 4.43333 9.28681 5.13917 10.1676 5.13917C10.7218 5.145 11.4918 5.145 12.151 5.145C12.4835 5.145 12.6585 4.75417 12.4251 4.52083C11.5851 3.675 10.0801 2.1525 9.21681 1.28917Z" fill="white"/>
<path d="M11.958 5.94416H10.2722C8.88967 5.94416 7.76384 4.81833 7.76384 3.43583V1.75C7.76384 1.42916 7.50134 1.16666 7.18051 1.16666H4.70717C2.91051 1.16666 1.45801 2.33333 1.45801 4.41583V9.58416C1.45801 11.6667 2.91051 12.8333 4.70717 12.8333H9.29217C11.0888 12.8333 12.5413 11.6667 12.5413 9.58416V6.5275C12.5413 6.20666 12.2788 5.94416 11.958 5.94416ZM6.70801 10.3542H4.37467C4.13551 10.3542 3.93717 10.1558 3.93717 9.91667C3.93717 9.6775 4.13551 9.47917 4.37467 9.47917H6.70801C6.94717 9.47917 7.14551 9.6775 7.14551 9.91667C7.14551 10.1558 6.94717 10.3542 6.70801 10.3542ZM7.87467 8.02083H4.37467C4.13551 8.02083 3.93717 7.8225 3.93717 7.58333C3.93717 7.34416 4.13551 7.14583 4.37467 7.14583H7.87467C8.11384 7.14583 8.31217 7.34416 8.31217 7.58333C8.31217 7.8225 8.11384 8.02083 7.87467 8.02083Z" fill="white"/>
</svg>
