<svg width="12" height="12" viewBox="0 0 12 12" fill="none" xmlns="http://www.w3.org/2000/svg">
<path d="M10.625 4.575C9.47 2.76 7.78 1.715 6 1.715C5.11 1.715 4.245 1.975 3.455 2.46C2.665 2.95 1.955 3.665 1.375 4.575C0.875 5.36 0.875 6.635 1.375 7.42C2.53 9.24 4.22 10.28 6 10.28C6.89 10.28 7.755 10.02 8.545 9.535C9.335 9.045 10.045 8.33 10.625 7.42C11.125 6.64 11.125 5.36 10.625 4.575ZM6 8.02C4.88 8.02 3.98 7.115 3.98 6C3.98 4.885 4.88 3.98 6 3.98C7.12 3.98 8.02 4.885 8.02 6C8.02 7.115 7.12 8.02 6 8.02Z" fill="#EA650A"/>
<path d="M5.99922 4.57C5.21422 4.57 4.57422 5.21 4.57422 6C4.57422 6.785 5.21422 7.425 5.99922 7.425C6.78422 7.425 7.42922 6.785 7.42922 6C7.42922 5.215 6.78422 4.57 5.99922 4.57Z" fill="#EA650A"/>
</svg>
